<svg version="1.1" xmlns="http://www.w3.org/2000/svg" viewBox="0 0 1644.8035658479823 766.2085602602706" width="1644.8035658479823" height="766.2085602602706">
  <!-- svg-source:excalidraw -->
  
  <defs>
    <style class="style-fonts">
      @font-face {
        font-family: "Virgil";
        src: url("https://excalidraw.com/Virgil.woff2");
      }
      @font-face {
        font-family: "Cascadia";
        src: url("https://excalidraw.com/Cascadia.woff2");
      }
    </style>
  </defs>
  <rect x="0" y="0" width="1644.8035658479823" height="766.2085602602706" fill="#ffffff"></rect><g stroke-linecap="round"><g transform="translate(124.5074738146925 85.25687883710225) rotate(0 0.07804357935242479 331.5603164930249)"><path d="M-0.57 0.98 C-0.4 111.4, -0.42 552.6, -0.15 662.68 M1.34 0.44 C1.43 110.5, -1.09 550.55, -1.18 660.89" stroke="#000000" stroke-width="4" fill="none"></path></g></g><mask></mask><g stroke-linecap="round"><g transform="translate(737.5415558261418 93.54313584079142) rotate(0 0.532854955173093 331.6913578983562)"><path d="M0.92 1.16 C1.15 111.47, 1.09 552.32, 1.13 662.67 M-0.06 0.72 C0.13 110.62, 0.6 550.74, 0.77 660.87" stroke="#000000" stroke-width="4" fill="none"></path></g></g><mask></mask><g stroke-linecap="round"><g transform="translate(145.19620097792608 179.15192038109274) rotate(0 283.7988474192549 0.49436342022980284)"><path d="M0.58 -0.74 C95.46 -0.63, 473.43 -0.37, 568.17 -0.12 M-0.57 1.48 C94.25 1.86, 472.35 1.79, 567.24 1.36" stroke="#000000" stroke-width="4" fill="none"></path></g><g transform="translate(145.19620097792608 179.15192038109274) rotate(0 283.7988474192549 0.49436342022980284)"><path d="M537.83 11.72 C544.76 10.88, 552.09 5.89, 566.27 1.55 M539.65 12.1 C545.81 8.53, 551.67 6.35, 567.13 0.71" stroke="#000000" stroke-width="4" fill="none"></path></g><g transform="translate(145.19620097792608 179.15192038109274) rotate(0 283.7988474192549 0.49436342022980284)"><path d="M537.79 -8.8 C544.59 -5.4, 551.93 -6.15, 566.27 1.55 M539.61 -8.42 C545.62 -7.14, 551.49 -4.46, 567.13 0.71" stroke="#000000" stroke-width="4" fill="none"></path></g></g><mask></mask><g stroke-linecap="round"><g transform="translate(713.3408232638019 338.2960992351894) rotate(0 -281.8668671071533 -0.34674508030192186)"><path d="M0.63 -0.08 C-93.25 -0.08, -470.53 0.75, -564.37 0.7 M-0.49 -1.16 C-93.92 -1.57, -468.49 -1.37, -562.18 -1.06" stroke="#000000" stroke-width="4" fill="none"></path></g><g transform="translate(713.3408232638019 338.2960992351894) rotate(0 -281.8668671071533 -0.34674508030192186)"><path d="M-534.14 -13.03 C-538.73 -7.39, -546.51 -6.08, -564.17 0.55 M-534.37 -10.82 C-539.67 -10.04, -547.35 -7.26, -561.87 -1.69" stroke="#000000" stroke-width="4" fill="none"></path></g><g transform="translate(713.3408232638019 338.2960992351894) rotate(0 -281.8668671071533 -0.34674508030192186)"><path d="M-534.1 7.49 C-538.82 8.8, -546.61 5.79, -564.17 0.55 M-534.33 9.7 C-539.64 5.98, -547.32 4.26, -561.87 -1.69" stroke="#000000" stroke-width="4" fill="none"></path></g></g><mask></mask><g stroke-linecap="round"><g transform="translate(157.9277814248469 503.80597724973416) rotate(0 279.3064327151707 -0.1276313999807499)"><path d="M0.95 -1.14 C93.53 -0.97, 463.64 0.64, 556.28 0.69 M0 0.88 C92.88 0.72, 465.97 -0.93, 558.62 -1.08" stroke="#000000" stroke-width="4" fill="none"></path></g><g transform="translate(157.9277814248469 503.80597724973416) rotate(0 279.3064327151707 -0.1276313999807499)"><path d="M528.56 8.07 C542.06 4.84, 549.9 -0.43, 558.78 -0.89 M530.58 8.98 C541.8 5.99, 551.49 1.9, 558.23 -1.26" stroke="#000000" stroke-width="4" fill="none"></path></g><g transform="translate(157.9277814248469 503.80597724973416) rotate(0 279.3064327151707 -0.1276313999807499)"><path d="M528.5 -12.45 C541.97 -8.07, 549.83 -5.75, 558.78 -0.89 M530.52 -11.54 C541.67 -6.66, 551.39 -2.86, 558.23 -1.26" stroke="#000000" stroke-width="4" fill="none"></path></g></g><mask></mask><g stroke-linecap="round"><g transform="translate(711.7494060622741 686.8217480244573) rotate(0 -278.4010972371516 -0.0322214506566354)"><path d="M-0.26 0.94 C-93.07 0.62, -464.77 -0.9, -557.98 -1 M1.81 0.39 C-91.01 0.1, -465.45 -0.22, -558.61 0.01" stroke="#000000" stroke-width="4" fill="none"></path></g><g transform="translate(711.7494060622741 686.8217480244573) rotate(0 -278.4010972371516 -0.0322214506566354)"><path d="M-528.86 -9.25 C-537.89 -9.75, -541.58 -6.48, -560.1 1.83 M-530.85 -10.15 C-540.61 -6.32, -549.64 -3.45, -559.27 0.35" stroke="#000000" stroke-width="4" fill="none"></path></g><g transform="translate(711.7494060622741 686.8217480244573) rotate(0 -278.4010972371516 -0.0322214506566354)"><path d="M-528.85 11.28 C-538.04 6.5, -541.73 5.49, -560.1 1.83 M-530.84 10.37 C-540.42 7.43, -549.45 3.55, -559.27 0.35" stroke="#000000" stroke-width="4" fill="none"></path></g></g><mask></mask><g transform="translate(332.9863447745822 120.91921653247056) rotate(0 113.9360338007258 17.40113970774722)"><text x="0" y="27.802279415494432" font-family="Helvetica, Segoe UI Emoji" font-size="29.830525213280943px" fill="#000000" text-anchor="start" style="white-space: pre;" direction="ltr">DHCP - Discover</text></g><g transform="translate(339.681305994093 272.43526789461794) rotate(0 89.07726278965833 17.40113970774722)"><text x="0" y="27.802279415494432" font-family="Helvetica, Segoe UI Emoji" font-size="29.830525213280943px" fill="#000000" text-anchor="start" style="white-space: pre;" direction="ltr">DHCP - Offer</text></g><g transform="translate(317.73015049935816 443.04856850979655) rotate(0 111.45015669961913 17.40113970774722)"><text x="0" y="27.802279415494432" font-family="Helvetica, Segoe UI Emoji" font-size="29.830525213280943px" fill="#000000" text-anchor="start" style="white-space: pre;" direction="ltr">DHCP - Request</text></g><g transform="translate(338.15866315990866 612.0239860878353) rotate(0 85.76275998818267 17.40113970774722)"><text x="0" y="27.802279415494432" font-family="Helvetica, Segoe UI Emoji" font-size="29.830525213280943px" fill="#000000" text-anchor="start" style="white-space: pre;" direction="ltr">DHCP - ACK</text></g><g transform="translate(10 10) rotate(0 104 21)"><text x="0" y="33" font-family="Helvetica, Segoe UI Emoji" font-size="36px" fill="#000000" text-anchor="start" style="white-space: pre;" direction="ltr">DCHP-Client</text></g><g transform="translate(599.9117065674261 24.190211678486776) rotate(0 111 21)"><text x="0" y="33" font-family="Helvetica, Segoe UI Emoji" font-size="36px" fill="#000000" text-anchor="start" style="white-space: pre;" direction="ltr">DHCP-Server</text></g><g transform="translate(1013.0831122967707 92.44670917113967) rotate(0 232.9999999999999 21)"><text x="0" y="33" font-family="Helvetica, Segoe UI Emoji" font-size="36px" fill="#000000" text-anchor="start" style="white-space: pre;" direction="ltr">Common DNS Record Types</text></g><g transform="translate(995.3919559089593 203.64873877027117) rotate(0 65.5 229)"><text x="0" y="32.63636363636363" font-family="Helvetica, Segoe UI Emoji" font-size="36px" fill="#000000" text-anchor="start" style="white-space: pre;" direction="ltr">Record</text><text x="0" y="74.27272727272727" font-family="Helvetica, Segoe UI Emoji" font-size="36px" fill="#000000" text-anchor="start" style="white-space: pre;" direction="ltr"></text><text x="0" y="115.9090909090909" font-family="Helvetica, Segoe UI Emoji" font-size="36px" fill="#000000" text-anchor="start" style="white-space: pre;" direction="ltr">A</text><text x="0" y="157.54545454545453" font-family="Helvetica, Segoe UI Emoji" font-size="36px" fill="#000000" text-anchor="start" style="white-space: pre;" direction="ltr">AAAA</text><text x="0" y="199.18181818181816" font-family="Helvetica, Segoe UI Emoji" font-size="36px" fill="#000000" text-anchor="start" style="white-space: pre;" direction="ltr">CNAME</text><text x="0" y="240.8181818181818" font-family="Helvetica, Segoe UI Emoji" font-size="36px" fill="#000000" text-anchor="start" style="white-space: pre;" direction="ltr">MX</text><text x="0" y="282.45454545454544" font-family="Helvetica, Segoe UI Emoji" font-size="36px" fill="#000000" text-anchor="start" style="white-space: pre;" direction="ltr">NS</text><text x="0" y="324.09090909090907" font-family="Helvetica, Segoe UI Emoji" font-size="36px" fill="#000000" text-anchor="start" style="white-space: pre;" direction="ltr">PTR</text><text x="0" y="365.7272727272727" font-family="Helvetica, Segoe UI Emoji" font-size="36px" fill="#000000" text-anchor="start" style="white-space: pre;" direction="ltr">SOA</text><text x="0" y="407.3636363636363" font-family="Helvetica, Segoe UI Emoji" font-size="36px" fill="#000000" text-anchor="start" style="white-space: pre;" direction="ltr">SRV</text><text x="0" y="448.99999999999994" font-family="Helvetica, Segoe UI Emoji" font-size="36px" fill="#000000" text-anchor="start" style="white-space: pre;" direction="ltr">TXT</text></g><g transform="translate(1172.3042910636457 206.17601928008094) rotate(0 189.5 229)"><text x="0" y="32.63636363636363" font-family="Helvetica, Segoe UI Emoji" font-size="36px" fill="#000000" text-anchor="start" style="white-space: pre;" direction="ltr">Description</text><text x="0" y="74.27272727272727" font-family="Helvetica, Segoe UI Emoji" font-size="36px" fill="#000000" text-anchor="start" style="white-space: pre;" direction="ltr"></text><text x="0" y="115.9090909090909" font-family="Helvetica, Segoe UI Emoji" font-size="36px" fill="#000000" text-anchor="start" style="white-space: pre;" direction="ltr">Adress record IPV4</text><text x="0" y="157.54545454545453" font-family="Helvetica, Segoe UI Emoji" font-size="36px" fill="#000000" text-anchor="start" style="white-space: pre;" direction="ltr">Adress record IPv6</text><text x="0" y="199.18181818181816" font-family="Helvetica, Segoe UI Emoji" font-size="36px" fill="#000000" text-anchor="start" style="white-space: pre;" direction="ltr">Canonical Name record</text><text x="0" y="240.8181818181818" font-family="Helvetica, Segoe UI Emoji" font-size="36px" fill="#000000" text-anchor="start" style="white-space: pre;" direction="ltr">Mail Exchanger record</text><text x="0" y="282.45454545454544" font-family="Helvetica, Segoe UI Emoji" font-size="36px" fill="#000000" text-anchor="start" style="white-space: pre;" direction="ltr">Nameserver Record</text><text x="0" y="324.09090909090907" font-family="Helvetica, Segoe UI Emoji" font-size="36px" fill="#000000" text-anchor="start" style="white-space: pre;" direction="ltr">Pointer record</text><text x="0" y="365.7272727272727" font-family="Helvetica, Segoe UI Emoji" font-size="36px" fill="#000000" text-anchor="start" style="white-space: pre;" direction="ltr">Start of Authority record</text><text x="0" y="407.3636363636363" font-family="Helvetica, Segoe UI Emoji" font-size="36px" fill="#000000" text-anchor="start" style="white-space: pre;" direction="ltr">Service Location record</text><text x="0" y="448.99999999999994" font-family="Helvetica, Segoe UI Emoji" font-size="36px" fill="#000000" text-anchor="start" style="white-space: pre;" direction="ltr">Text record</text></g><g stroke-linecap="round" transform="translate(949.9001354558111 63.454936922777506) rotate(0 342.4517151960856 320.9695416339881)"><path d="M32 0 M32 0 C273.45 0.46, 514.89 0.74, 652.9 0 M32 0 C259.9 -0.22, 486.97 -0.27, 652.9 0 M652.9 0 C675.82 1.92, 685.88 12.35, 684.9 32 M652.9 0 C674.52 1.08, 685.11 9.48, 684.9 32 M684.9 32 C683.39 175.05, 683.44 317.54, 684.9 609.94 M684.9 32 C685.23 156.2, 685.57 281.43, 684.9 609.94 M684.9 609.94 C685.8 633.08, 676.21 640.39, 652.9 641.94 M684.9 609.94 C684.54 631.01, 675.12 642.98, 652.9 641.94 M652.9 641.94 C506.28 645.04, 359.33 644.6, 32 641.94 M652.9 641.94 C527.15 640.81, 401.83 641.24, 32 641.94 M32 641.94 C11.79 640.84, -1.26 631.9, 0 609.94 M32 641.94 C9.4 643.08, 1.65 633.44, 0 609.94 M0 609.94 C2.23 485.88, 2.31 361.21, 0 32 M0 609.94 C0.81 393.48, 0.89 176.77, 0 32 M0 32 C0.74 11.64, 8.98 -1.25, 32 0 M0 32 C-0.15 12.44, 12.33 0.96, 32 0" stroke="#000000" stroke-width="4" fill="none"></path></g></svg>