<svg version="1.1" xmlns="http://www.w3.org/2000/svg" viewBox="0 0 2765.8270107731223 3034.461865592348" width="2765.8270107731223" height="3034.461865592348">
  <!-- svg-source:excalidraw -->
  
  <defs>
    <style class="style-fonts">
      @font-face {
        font-family: "Virgil";
        src: url("https://excalidraw.com/Virgil.woff2");
      }
      @font-face {
        font-family: "Cascadia";
        src: url("https://excalidraw.com/Cascadia.woff2");
      }
    </style>
    
  </defs>
  <rect x="0" y="0" width="2765.8270107731223" height="3034.461865592348" fill="#ffffff"></rect><g stroke-linecap="round" transform="translate(2240.383102081716 453.87336299568415) rotate(0 190 100)"><path d="M32 0 M32 0 C141 -0.3, 246.86 2.22, 348 0 M32 0 C98.26 4.42, 163.76 4.6, 348 0 M348 0 C366.69 0.66, 376.17 10.67, 380 32 M348 0 C373.52 2.29, 380.15 13.72, 380 32 M380 32 C379.93 78.84, 378.13 127.89, 380 168 M380 32 C379.93 66.72, 382.5 100.76, 380 168 M380 168 C381.05 190.76, 368.56 200.36, 348 200 M380 168 C379.48 192.13, 370.92 202.04, 348 200 M348 200 C254.06 199.68, 160.25 200.93, 32 200 M348 200 C245.77 199.66, 144.78 198.82, 32 200 M32 200 C7.84 196.03, -0.78 186.88, 0 168 M32 200 C10.94 199.67, -0.19 191.12, 0 168 M0 168 C-5 125.98, -3.78 74.61, 0 32 M0 168 C0 126.69, -1.66 83.18, 0 32 M0 32 C-2.98 10.86, 7.55 1.96, 32 0 M0 32 C-2.73 12.01, 6.49 0.56, 32 0" stroke="#1e1e1e" stroke-width="4" fill="none"></path></g><g transform="translate(2360.1651226505637 531.3733629956841) rotate(0 70.21797943115234 22.5)"><text x="70.21797943115234" y="0" font-family="Virgil, Segoe UI Emoji" font-size="36px" fill="#1e1e1e" text-anchor="middle" style="white-space: pre;" direction="ltr" dominant-baseline="text-before-edge">Funktion</text></g><g stroke-linecap="round" transform="translate(858 1210) rotate(0 190 100)"><path d="M32 0 M32 0 C99.01 -1.57, 167.65 -6.51, 348 0 M32 0 C129.27 -1.02, 227.74 -0.73, 348 0 M348 0 C369.47 -0.3, 378.6 8.22, 380 32 M348 0 C366.45 1.47, 379.81 11.79, 380 32 M380 32 C381.5 69.24, 382.08 104.93, 380 168 M380 32 C379.78 72.09, 378.2 109.12, 380 168 M380 168 C380.73 188.26, 368.71 197.56, 348 200 M380 168 C383.25 189.21, 365.43 198.46, 348 200 M348 200 C279.7 200.59, 214.6 198.27, 32 200 M348 200 C261.93 203.66, 172.77 205.54, 32 200 M32 200 C13.88 202.2, -1.15 188.37, 0 168 M32 200 C7.78 204.56, -4.11 192.86, 0 168 M0 168 C-2.87 128.51, -3.37 93.47, 0 32 M0 168 C-1.73 133.86, -1.32 99.4, 0 32 M0 32 C3.64 9.38, 8.67 2.38, 32 0 M0 32 C-3.25 14.46, 10.03 4.23, 32 0" stroke="#1e1e1e" stroke-width="4" fill="none"></path></g><g transform="translate(873.4000701904297 1265) rotate(0 174.5999298095703 45)"><text x="174.5999298095703" y="0" font-family="Virgil, Segoe UI Emoji" font-size="36px" fill="#1e1e1e" text-anchor="middle" style="white-space: pre;" direction="ltr" dominant-baseline="text-before-edge">Frachtführer</text><text x="174.5999298095703" y="45" font-family="Virgil, Segoe UI Emoji" font-size="36px" fill="#1e1e1e" text-anchor="middle" style="white-space: pre;" direction="ltr" dominant-baseline="text-before-edge">Erhält Freizeichnung</text></g><g stroke-linecap="round" transform="translate(1678 990) rotate(0 190 100)"><path d="M32 0 M32 0 C127.91 -0.64, 218.99 2.2, 348 0 M32 0 C147.2 -0.64, 258.99 -2.43, 348 0 M348 0 C371.98 -2.57, 377.69 13.23, 380 32 M348 0 C373.36 3.73, 384.19 10.31, 380 32 M380 32 C376.33 57.33, 381.98 85.82, 380 168 M380 32 C381.53 64.07, 380.1 91, 380 168 M380 168 C380.82 185.74, 372.19 201.7, 348 200 M380 168 C377.31 192.37, 367.79 198.25, 348 200 M348 200 C269.49 201.73, 191 201.93, 32 200 M348 200 C221.34 199.48, 96.82 199.93, 32 200 M32 200 C10.64 196.91, 2.84 193.08, 0 168 M32 200 C9.22 197.32, -2.62 187.25, 0 168 M0 168 C-2.35 124.65, -1.57 77.71, 0 32 M0 168 C-0.98 126.62, -0.58 87.71, 0 32 M0 32 C3.77 14.52, 8.37 -0.95, 32 0 M0 32 C-2.88 8.22, 11.3 -3.08, 32 0" stroke="#1e1e1e" stroke-width="4" fill="none"></path></g><g transform="translate(1748.6420364379883 1045) rotate(0 119.35796356201172 45)"><text x="119.35796356201172" y="0" font-family="Virgil, Segoe UI Emoji" font-size="36px" fill="#1e1e1e" text-anchor="middle" style="white-space: pre;" direction="ltr" dominant-baseline="text-before-edge">Ware geht an</text><text x="119.35796356201172" y="45" font-family="Virgil, Segoe UI Emoji" font-size="36px" fill="#1e1e1e" text-anchor="middle" style="white-space: pre;" direction="ltr" dominant-baseline="text-before-edge">Warenprüfung</text></g><g stroke-linecap="round" transform="translate(1718 1490) rotate(0 190 100)"><path d="M32 0 M32 0 C112.52 -2.29, 190.69 1.22, 348 0 M32 0 C95.99 -1.32, 161.86 -2.17, 348 0 M348 0 C366.71 2.45, 383.46 8.88, 380 32 M348 0 C373.5 0.34, 382.42 12.66, 380 32 M380 32 C380.97 81.65, 385.53 138.23, 380 168 M380 32 C377.9 79.03, 378.63 130.31, 380 168 M380 168 C376.06 186.92, 368.47 203.51, 348 200 M380 168 C377.79 191.14, 368.02 195.61, 348 200 M348 200 C255.92 199.74, 167.93 194.94, 32 200 M348 200 C273.35 195.68, 199.72 194.96, 32 200 M32 200 C13.44 202.53, -2.21 186.39, 0 168 M32 200 C6.08 200.36, 2.82 192.6, 0 168 M0 168 C0.7 135.5, -4.03 103.35, 0 32 M0 168 C-0.81 132.2, -3.74 98.74, 0 32 M0 32 C-0.72 13.82, 14.02 2.62, 32 0 M0 32 C1.54 6.62, 13.53 0.14, 32 0" stroke="#1e1e1e" stroke-width="4" fill="none"></path></g><g transform="translate(1750.4640655517578 1567.5) rotate(0 157.5359344482422 22.5)"><text x="157.5359344482422" y="0" font-family="Virgil, Segoe UI Emoji" font-size="36px" fill="#1e1e1e" text-anchor="middle" style="white-space: pre;" direction="ltr" dominant-baseline="text-before-edge">Ware wird geprüft</text></g><g stroke-linecap="round" transform="translate(298 1230) rotate(0 190 100)"><path d="M32 0 M32 0 C95.67 -0.23, 162.58 2.58, 348 0 M32 0 C155.3 1.42, 282.16 1.97, 348 0 M348 0 C369.37 3.21, 378.01 6.87, 380 32 M348 0 C369.84 -1.08, 379.91 14.22, 380 32 M380 32 C379.05 80.99, 381.77 131.39, 380 168 M380 32 C382.67 82.36, 383.89 137.07, 380 168 M380 168 C377.86 187.47, 371.42 197.51, 348 200 M380 168 C381.92 185.1, 373.01 196.53, 348 200 M348 200 C236.81 197.51, 125.08 197.07, 32 200 M348 200 C239.23 201.39, 130.85 202.42, 32 200 M32 200 C10.95 198.63, -0.25 191.73, 0 168 M32 200 C8.12 199.08, -4.31 190.89, 0 168 M0 168 C0.63 118.04, 0.89 73.9, 0 32 M0 168 C0.61 122.38, 1.87 81.17, 0 32 M0 32 C-1.24 9.4, 9.54 -3.42, 32 0 M0 32 C-1.29 14.55, 11.97 0.04, 32 0" stroke="#1e1e1e" stroke-width="4" fill="none"></path></g><g transform="translate(357.7700500488281 1307.5) rotate(0 130.22994995117188 22.5)"><text x="130.22994995117188" y="0" font-family="Virgil, Segoe UI Emoji" font-size="36px" fill="#1e1e1e" text-anchor="middle" style="white-space: pre;" direction="ltr" dominant-baseline="text-before-edge">Notiert Mängel</text></g><g stroke-linecap="round" transform="translate(290 1770) rotate(0 190 100)"><path d="M32 0 M32 0 C108.82 -4.8, 186.14 -4.86, 348 0 M32 0 C148.92 -4.12, 265.17 -2.97, 348 0 M348 0 C368.2 1.67, 380.11 8.39, 380 32 M348 0 C368.77 1.83, 379.04 8.87, 380 32 M380 32 C376.39 64.35, 381.97 96.35, 380 168 M380 32 C380.66 83.66, 383.02 135.6, 380 168 M380 168 C381.36 188.23, 372.79 200.45, 348 200 M380 168 C382.42 190.49, 366.07 201.26, 348 200 M348 200 C251.66 203.16, 149.4 203.52, 32 200 M348 200 C279.65 203.34, 211.57 201.9, 32 200 M32 200 C11.34 198.21, -2.57 188.15, 0 168 M32 200 C9.2 200.46, -0.67 191.2, 0 168 M0 168 C-1.42 132.15, 2.41 100.8, 0 32 M0 168 C0.71 122.24, 2.33 74.36, 0 32 M0 32 C2.18 14.52, 8.27 -1.01, 32 0 M0 32 C1.02 13.11, 9.69 0.91, 32 0" stroke="#1e1e1e" stroke-width="4" fill="none"></path></g><g transform="translate(369.9120407104492 1825) rotate(0 110.08795928955078 45)"><text x="110.08795928955078" y="0" font-family="Virgil, Segoe UI Emoji" font-size="36px" fill="#1e1e1e" text-anchor="middle" style="white-space: pre;" direction="ltr" dominant-baseline="text-before-edge">Verfahrens-</text><text x="110.08795928955078" y="45" font-family="Virgil, Segoe UI Emoji" font-size="36px" fill="#1e1e1e" text-anchor="middle" style="white-space: pre;" direction="ltr" dominant-baseline="text-before-edge">Entscheidung</text></g><g stroke-linecap="round" transform="translate(2058 2270) rotate(0 190 100)"><path d="M32 0 M32 0 C107.27 -4.63, 186.7 -5.43, 348 0 M32 0 C96.42 -0.73, 163.25 -0.05, 348 0 M348 0 C370.5 0.85, 379.94 11.31, 380 32 M348 0 C370.44 -3.63, 376.01 13.32, 380 32 M380 32 C383.36 76.3, 382.07 121.73, 380 168 M380 32 C377.07 85.12, 378.4 136.6, 380 168 M380 168 C376.31 188.11, 369.54 202.52, 348 200 M380 168 C375.96 192.51, 369.26 198.82, 348 200 M348 200 C258.71 199.86, 166.8 198.62, 32 200 M348 200 C257.02 196.17, 167.76 194.94, 32 200 M32 200 C10.66 199.47, 1.07 186.69, 0 168 M32 200 C13.53 198.12, -1.39 193.18, 0 168 M0 168 C-5.59 128.46, -2.34 99.11, 0 32 M0 168 C0.61 129.14, 2.25 92.12, 0 32 M0 32 C-3.98 11.06, 9.94 1.78, 32 0 M0 32 C-1.83 8.03, 7.21 -3.28, 32 0" stroke="#1e1e1e" stroke-width="4" fill="none"></path></g><g transform="translate(2122.0360565185547 2347.5) rotate(0 125.96394348144531 22.5)"><text x="125.96394348144531" y="0" font-family="Virgil, Segoe UI Emoji" font-size="36px" fill="#1e1e1e" text-anchor="middle" style="white-space: pre;" direction="ltr" dominant-baseline="text-before-edge">Ware einlagern</text></g><g stroke-linecap="round" transform="translate(1267.9999999999995 2522) rotate(0 190 100)"><path d="M32 0 M32 0 C145.55 -2.02, 255.64 2.44, 348 0 M32 0 C130.73 -3.82, 232.19 -3.19, 348 0 M348 0 C366.77 2.38, 382.37 11.98, 380 32 M348 0 C373.56 -2.05, 381.37 13.6, 380 32 M380 32 C383.25 74.53, 382.76 114.42, 380 168 M380 32 C380.51 59.92, 381.99 88.43, 380 168 M380 168 C382.48 189.71, 372.68 200.62, 348 200 M380 168 C380.14 187.84, 371.53 196.12, 348 200 M348 200 C254.49 200.26, 160.05 202.56, 32 200 M348 200 C237.49 198.92, 128.44 198.82, 32 200 M32 200 C13.58 198.67, 1.2 190.18, 0 168 M32 200 C6.1 203.38, 3.73 191.58, 0 168 M0 168 C1.04 135.09, -1.13 106.79, 0 32 M0 168 C-1.66 123.4, -1.21 78.17, 0 32 M0 32 C-2.01 11.02, 8.22 -1.47, 32 0 M0 32 C-0.14 6.45, 11.85 -4.23, 32 0" stroke="#1e1e1e" stroke-width="4" fill="none"></path></g><g transform="translate(1277.5140991210933 2599.5) rotate(0 180.48590087890625 22.5)"><text x="180.48590087890625" y="0" font-family="Virgil, Segoe UI Emoji" font-size="36px" fill="#1e1e1e" text-anchor="middle" style="white-space: pre;" direction="ltr" dominant-baseline="text-before-edge">Prüfbericht erstellen</text></g><g stroke-linecap="round" transform="translate(1676 2520) rotate(0 190 100)"><path d="M32 0 M32 0 C136.58 -2.87, 244.86 -2.45, 348 0 M32 0 C152.35 0.99, 274.05 -0.78, 348 0 M348 0 C367.27 0.67, 379.91 12.06, 380 32 M348 0 C367.08 3.77, 375.88 14.23, 380 32 M380 32 C376.18 64.62, 376.34 102.61, 380 168 M380 32 C378.43 80.12, 379.5 129.47, 380 168 M380 168 C381.74 187.55, 371.86 203.01, 348 200 M380 168 C375.91 186.98, 369.1 201.53, 348 200 M348 200 C283.52 203.55, 219.11 199.82, 32 200 M348 200 C279.56 205.22, 209.79 204.21, 32 200 M32 200 C11.76 203.76, 2.66 189.65, 0 168 M32 200 C6.53 201.34, 0.41 190.05, 0 168 M0 168 C-0.25 128.74, 0.75 80.82, 0 32 M0 168 C-2.48 123.04, -2.17 80.3, 0 32 M0 32 C-0.58 9.44, 11.77 -2.85, 32 0 M0 32 C0.66 13.73, 9.64 -4.47, 32 0" stroke="#1e1e1e" stroke-width="4" fill="none"></path></g><g transform="translate(1719.966049194336 2575) rotate(0 146.03395080566406 45)"><text x="146.03395080566406" y="0" font-family="Virgil, Segoe UI Emoji" font-size="36px" fill="#1e1e1e" text-anchor="middle" style="white-space: pre;" direction="ltr" dominant-baseline="text-before-edge">Ware gesondert </text><text x="146.03395080566406" y="45" font-family="Virgil, Segoe UI Emoji" font-size="36px" fill="#1e1e1e" text-anchor="middle" style="white-space: pre;" direction="ltr" dominant-baseline="text-before-edge">lagern</text></g><g stroke-linecap="round" transform="translate(538 370) rotate(0 190 100)"><path d="M32 0 M32 0 C150.57 -5.75, 265.49 -0.86, 348 0 M32 0 C126.03 0.15, 219.11 -0.25, 348 0 M348 0 C367.72 -3.06, 383.97 12.21, 380 32 M348 0 C372.93 -1.01, 382.72 10.99, 380 32 M380 32 C374.45 67.88, 378.32 104.59, 380 168 M380 32 C380.63 81.12, 382.73 131.62, 380 168 M380 168 C377.54 189.23, 369.69 198.97, 348 200 M380 168 C379.55 187.45, 369.72 203.8, 348 200 M348 200 C268.04 200.65, 190.02 202.93, 32 200 M348 200 C241.24 198.3, 135.48 195.91, 32 200 M32 200 C14.27 196.13, -0.05 192.95, 0 168 M32 200 C7.72 201.5, -3.59 193.68, 0 168 M0 168 C1.68 133.79, -0.62 107.31, 0 32 M0 168 C0.54 125.92, -0.05 81.47, 0 32 M0 32 C-0.88 7.01, 8.91 -2.64, 32 0 M0 32 C-1.36 14.4, 13.69 -3.8, 32 0" stroke="#1e1e1e" stroke-width="4" fill="none"></path></g><g transform="translate(607.1300506591797 425) rotate(0 120.86994934082031 45)"><text x="120.86994934082031" y="0" font-family="Virgil, Segoe UI Emoji" font-size="36px" fill="#1e1e1e" text-anchor="middle" style="white-space: pre;" direction="ltr" dominant-baseline="text-before-edge">Sicht- und</text><text x="120.86994934082031" y="45" font-family="Virgil, Segoe UI Emoji" font-size="36px" fill="#1e1e1e" text-anchor="middle" style="white-space: pre;" direction="ltr" dominant-baseline="text-before-edge">Belegkontrolle</text></g><g stroke-linecap="round"><g transform="translate(2260.383102081716 173.87336299568415) rotate(0 148.28632996231318 99.83165290206671)"><path d="M0.75 -3.87 C-21.43 32.89, -39.47 70.77, -62.38 97.28 M-1.24 0.93 C-23.64 36.71, -43.02 71.89, -60.8 100.2 M-61.62 99.64 C-38.99 132.66, -21.12 155.98, -1.19 203.54 M-61.54 98.3 C-43.81 126.76, -26.02 152.51, -1.93 201.42 M1.06 198.5 C74.4 200.64, 156.23 198.01, 298.43 201.75 M-1.33 200.45 C65.24 200.38, 132.56 202.26, 301.28 198.93 M300.57 198.76 C318.4 174.11, 332.18 144.52, 358.96 101.59 M300.88 198.87 C314.32 178.87, 328.85 154.74, 358.36 101.54 M356.39 96.35 C335.85 59.18, 315.07 22.05, 302.5 -2.7 M358.95 99.27 C346.9 79.01, 335.72 60.28, 298.35 0.81 M299.81 -0.39 C208.1 0.73, 118.39 1.81, -1.93 1.34 M300.09 -0.42 C235.12 0.21, 170.68 0.54, 0.26 -0.58" stroke="#1e1e1e" stroke-width="4" fill="none"></path></g></g><mask></mask><g transform="translate(2340.383102081716 253.87336299568415) rotate(0 64.79996490478516 22.5)"><text x="0" y="0" font-family="Virgil, Segoe UI Emoji" font-size="36px" fill="#1e1e1e" text-anchor="start" style="white-space: pre;" direction="ltr" dominant-baseline="text-before-edge">Ereignis</text></g><g stroke-linecap="round"><g transform="translate(581.8356697335839 73.74621620029211) rotate(0 148.95837846957147 99.34781763702631)"><path d="M3.65 -2.28 C-18.83 28.26, -35.45 54.84, -63.84 100.39 M1.09 -1.06 C-18.46 25.07, -32.97 51.55, -58.85 100.96 M-62.56 101.34 C-39.07 127.59, -21.81 159.8, -1.99 202.44 M-59.92 100.41 C-44.68 127.02, -29.38 155.43, 0.24 200.46 M-0.34 198.82 C115.52 193.7, 237.29 198.44, 302.17 202.36 M-0.68 201.16 C99.07 199.59, 199.83 199.24, 298.64 201.08 M301.99 200.31 C308.82 178.39, 322.79 160.77, 357.66 99.92 M300.25 200.97 C323.82 161.62, 345.79 125.16, 358.81 99.54 M358.02 98.74 C344.52 71.32, 323.34 41.03, 303.67 -3.75 M361.75 99.39 C340.65 73.06, 327.95 48.09, 299.27 1.4 M301.27 -1.59 C226.26 -1.46, 146.94 -1.14, 0.86 1.94 M301.35 1.35 C211.33 -0.99, 124.8 -2.14, 1.34 -0.84" stroke="#1e1e1e" stroke-width="4" fill="none"></path></g></g><mask></mask><g transform="translate(618 110) rotate(0 104.68795013427734 45)"><text x="0" y="0" font-family="Virgil, Segoe UI Emoji" font-size="36px" fill="#1e1e1e" text-anchor="start" style="white-space: pre;" direction="ltr" dominant-baseline="text-before-edge">Ware ist</text><text x="0" y="45" font-family="Virgil, Segoe UI Emoji" font-size="36px" fill="#1e1e1e" text-anchor="start" style="white-space: pre;" direction="ltr" dominant-baseline="text-before-edge">eingetroffen</text></g><g stroke-linecap="round"><g transform="translate(320.9142379537225 951.8164378292859) rotate(0 150.09361328929663 100.04321567280908)"><path d="M-3.26 0.12 C-8.69 18.26, -27.38 41.01, -62.91 98.82 M1.35 -1.82 C-22.88 40.66, -44.36 77.98, -61.7 101.66 M-61.18 99.95 C-46.69 127.2, -31.26 150.81, -1.65 196.59 M-61.66 99.08 C-44.9 121.1, -31.71 143.82, -1.48 201.1 M1.23 201.9 C98.67 199.39, 202.59 199.75, 300.5 198.6 M0.92 200.77 C112.72 198.97, 227.65 198.47, 299.94 201.05 M300.55 196.43 C324.62 160.04, 342.8 119, 359.2 100.23 M298.35 201.45 C314.07 174.91, 325.79 155.91, 359.89 99.64 M363.1 98.79 C339.17 67.31, 326.99 42.3, 303.12 -0.88 M358.25 101.56 C336.72 63.36, 317.11 27.52, 301.32 1.59 M300.84 0.18 C230.76 -1.45, 165.38 -2.12, -0.29 -1.2 M298.58 0.36 C206.37 -2.6, 113.74 -1.41, 0.52 -0.15" stroke="#1e1e1e" stroke-width="4" fill="none"></path></g></g><mask></mask><g transform="translate(358 990) rotate(0 98.8919677734375 22.5)"><text x="0" y="0" font-family="Virgil, Segoe UI Emoji" font-size="36px" fill="#1e1e1e" text-anchor="start" style="white-space: pre;" direction="ltr" dominant-baseline="text-before-edge">Hat Mangel</text></g><g stroke-linecap="round"><g transform="translate(900.0525650754571 951.1945926174521) rotate(0 149.45147118531168 101.33196029812098)"><path d="M3.67 0.83 C-12.71 22.69, -26.5 42.49, -62.05 100.63 M1.25 -1.03 C-18.65 28.26, -33.63 55.56, -58.41 98.2 M-60.76 100.4 C-44.4 130.64, -24.55 155.67, -3.61 197.29 M-59.99 98.61 C-41.56 131.01, -23.75 162.73, -1.97 201.59 M0.57 197.79 C114.35 202.39, 227.39 200.75, 300.99 201.02 M-0.02 199.2 C88.36 199.11, 178.46 196.94, 298.84 199.31 M298.39 203.86 C318.36 168.83, 337.11 136.58, 360.27 97.22 M298.61 200.15 C318.88 167.6, 338.84 139.08, 358.62 101.32 M356.11 97.73 C340.08 64.85, 316.2 24.29, 296.26 -1.19 M360.96 99.3 C339.29 71.68, 323.13 42.92, 299.21 0.61 M299.7 -0.69 C211.43 3.1, 128.5 -0.17, 2.8 1.57 M299.87 -0.08 C184.64 -1.38, 65.77 -1.64, 1.2 0.48" stroke="#1e1e1e" stroke-width="4" fill="none"></path></g></g><mask></mask><g transform="translate(937.1383271217346 989.3781547881663) rotate(0 109.38597106933594 45)"><text x="0" y="0" font-family="Virgil, Segoe UI Emoji" font-size="36px" fill="#1e1e1e" text-anchor="start" style="white-space: pre;" direction="ltr" dominant-baseline="text-before-edge">Hat KEINEN</text><text x="0" y="45" font-family="Virgil, Segoe UI Emoji" font-size="36px" fill="#1e1e1e" text-anchor="start" style="white-space: pre;" direction="ltr" dominant-baseline="text-before-edge">Mangel</text></g><g stroke-linecap="round"><g transform="translate(919.9199265949428 1473.2941959184336) rotate(0 149.765270460397 99.69962316571855)"><path d="M2.58 -1.46 C-23.8 38.39, -48.16 74.42, -58.33 101.02 M0.14 -0.73 C-18.79 38.65, -42.1 75.93, -58.3 99.84 M-57.66 96.01 C-35.64 139.73, -12.62 174.16, -3.66 198.76 M-61.92 99.22 C-38.68 135.37, -22.13 164.05, -1.35 198.66 M1.59 197.93 C77.43 196.85, 155.25 200.35, 301.18 198.81 M0.46 199.72 C84.67 202.15, 169.41 204.1, 299.69 201.36 M298.79 200.44 C318.62 167.16, 343.23 128.71, 361.04 103.81 M298.53 201.55 C320.36 166.78, 339.88 134.64, 358.91 99.65 M356.33 98.16 C343.86 71.76, 321.51 43.26, 303.34 -0.78 M361.45 99.52 C341.65 68.45, 324.67 39.17, 299.05 0.62 M301.52 0.69 C233.6 -2.37, 167.85 -4.92, -1.38 -2.03 M301.46 -0.45 C181.21 -2.03, 62.63 -3.41, -1.1 1.12" stroke="#1e1e1e" stroke-width="4" fill="none"></path></g></g><mask></mask><g transform="translate(957.0056886412203 1511.4777580891478) rotate(0 118.92594909667969 45)"><text x="0" y="0" font-family="Virgil, Segoe UI Emoji" font-size="36px" fill="#1e1e1e" text-anchor="start" style="white-space: pre;" direction="ltr" dominant-baseline="text-before-edge">Freizeichnung </text><text x="0" y="45" font-family="Virgil, Segoe UI Emoji" font-size="36px" fill="#1e1e1e" text-anchor="start" style="white-space: pre;" direction="ltr" dominant-baseline="text-before-edge">Ausgestellt</text></g><g stroke-linecap="round"><g transform="translate(1741.4822268262506 1252.0129216161988) rotate(0 149.00823988765478 100.77836325403928)"><path d="M-3.91 2.62 C-18.21 29.29, -31.74 52.92, -58.26 101.74 M0.4 -1.54 C-11.8 20.77, -22.42 44.18, -58.8 99.74 M-63.48 97.43 C-41.3 132.27, -26.13 158.52, 1.49 203.34 M-61.18 98.42 C-41.76 128.63, -23.96 160.4, 1.97 201.08 M0.05 197.53 C99.32 198.41, 202.91 196.79, 302.6 202.64 M0.6 200.57 C104.12 200.39, 208.41 200.7, 301.1 198.95 M301.25 203.57 C317.28 170.48, 334.2 138.91, 360.79 99.89 M299.42 201 C314.48 177.47, 327.13 157.63, 358.69 98.59 M361.5 100.07 C350.56 80.53, 334.91 58.51, 302.72 2.34 M358.72 99.78 C344.8 66.89, 324.7 35.37, 300.68 1.61 M297.71 1.96 C186.44 -0.84, 73.8 0.48, -0.56 1.48 M298.58 0.61 C231.08 -2.45, 164.3 -3.08, -0.77 0.04" stroke="#1e1e1e" stroke-width="4" fill="none"></path></g></g><mask></mask><g transform="translate(1778.567988872528 1290.196483786913) rotate(0 99.05397033691406 45)"><text x="0" y="0" font-family="Virgil, Segoe UI Emoji" font-size="36px" fill="#1e1e1e" text-anchor="start" style="white-space: pre;" direction="ltr" dominant-baseline="text-before-edge">Ware </text><text x="0" y="45" font-family="Virgil, Segoe UI Emoji" font-size="36px" fill="#1e1e1e" text-anchor="start" style="white-space: pre;" direction="ltr" dominant-baseline="text-before-edge">angekommen</text></g><g stroke-linecap="round"><g transform="translate(1579.8611157648265 1993.0463339313865) rotate(0 151.05146870575845 99.14999162918139)"><path d="M-3.38 -3.05 C-12.25 22.05, -19.2 39, -57.61 98.08 M-1.05 1.99 C-22.86 35.58, -45.07 73.23, -61.86 98.08 M-57.59 99.39 C-44.72 130.95, -22.68 155.52, 2.38 200.19 M-59.59 99.3 C-36.74 134.45, -19.53 167.76, 0.4 198.4 M2.36 200.21 C75.87 202.29, 153.91 199.02, 299.52 198.1 M0.99 200.98 C84.09 198.46, 166.72 198.2, 300.83 201.35 M300.04 196.68 C319.98 161.34, 340.93 127.97, 357.86 103.52 M301.24 200.07 C310.29 179.6, 324.71 159.73, 361.05 101.87 M363.96 96.81 C344.08 72.53, 323.23 45, 298.37 -2.16 M359.02 98.24 C339.62 67.33, 320.82 35.63, 301.51 -0.3 M300.02 -2.63 C188.96 -1.55, 79.16 -0.23, 0.72 -1.92 M300.92 -0.48 C198.97 -0.19, 97.93 -1.09, 0.43 -1.4" stroke="#1e1e1e" stroke-width="4" fill="none"></path></g></g><mask></mask><g transform="translate(1616.946877811104 2031.2298961021006) rotate(0 108.4139404296875 45)"><text x="0" y="0" font-family="Virgil, Segoe UI Emoji" font-size="36px" fill="#1e1e1e" text-anchor="start" style="white-space: pre;" direction="ltr" dominant-baseline="text-before-edge">Mangel</text><text x="0" y="45" font-family="Virgil, Segoe UI Emoji" font-size="36px" fill="#1e1e1e" text-anchor="start" style="white-space: pre;" direction="ltr" dominant-baseline="text-before-edge">Festgestellt</text></g><g stroke-linecap="round"><g transform="translate(2077.578434418887 1991.947151792534) rotate(0 151.5518259163946 99.59882831512004)"><path d="M2.33 0.2 C-17.58 31.75, -40.64 66.89, -58.32 98.98 M1.51 0.18 C-16.96 29.43, -33.96 54.89, -59.23 98.08 M-56.49 103.1 C-36.75 131.8, -14.25 167.32, 1.53 197.49 M-59.58 101.39 C-42.21 125.89, -30.12 151.2, 0.79 201.14 M2.7 201.1 C108.62 199.25, 212.71 200.47, 297.61 198.05 M-0.45 199.9 C77.08 197.48, 154.64 198.92, 299.68 200.96 M299.66 199.2 C322.84 158.04, 345.49 123.16, 361.99 100.87 M299.38 199.72 C322.04 166.46, 339.39 135.23, 358.22 99.35 M362.68 102.99 C341.03 69.67, 322.57 34.51, 300.06 -0.34 M360.73 98.02 C337.87 68.05, 321.06 35.37, 298.37 1.9 M301.54 -0.85 C191.85 0.04, 81.63 -0.89, 1.22 -0.93 M299.46 -0.97 C197.59 -3.11, 93.96 -1.15, -1.3 -0.55" stroke="#1e1e1e" stroke-width="4" fill="none"></path></g></g><mask></mask><g transform="translate(2114.6641964651644 2030.1307139632481) rotate(0 100.02595520019531 22.5)"><text x="0" y="0" font-family="Virgil, Segoe UI Emoji" font-size="36px" fill="#1e1e1e" text-anchor="start" style="white-space: pre;" direction="ltr" dominant-baseline="text-before-edge">Kein Mangel</text></g><g stroke-linecap="round"><g transform="translate(2143.578434418887 2525.947151792534) rotate(0 149.82376889884472 100.0864579694267)"><path d="M-3.06 3.64 C-11.53 23.39, -26.88 46.32, -63.84 100.5 M1.99 1.79 C-20.56 36.16, -45.51 76.75, -61.09 100.14 M-59.17 103.18 C-41.49 133.9, -12.66 173.04, -2.6 196.69 M-58.63 100.35 C-35.46 139.47, -13.14 180.39, 1.69 198.63 M0.99 202.67 C121.46 198.2, 239.32 202.13, 298.52 199.27 M0.68 200.16 C86.66 203.85, 174.34 204.66, 300.24 198.59 M303.35 200.91 C314.1 181.57, 328.53 156.09, 361.43 97.42 M298.22 198.24 C315.5 175.12, 331.86 148.64, 359.19 98.18 M363.49 101.8 C339.69 64.09, 326.51 35.61, 298.59 -2.68 M360.09 98.67 C340 68.6, 323.49 39.78, 298.15 -0.24 M298.34 0.45 C180.54 2.72, 58.28 3.08, -0.67 -2.87 M299.14 0.66 C199.74 -0.68, 101.97 -1.27, 0.56 0.41" stroke="#1e1e1e" stroke-width="4" fill="none"></path></g></g><mask></mask><g transform="translate(2180.6641964651644 2564.130713963248) rotate(0 96.85795593261719 67.5)"><text x="0" y="0" font-family="Virgil, Segoe UI Emoji" font-size="36px" fill="#1e1e1e" text-anchor="start" style="white-space: pre;" direction="ltr" dominant-baseline="text-before-edge">Ware ist</text><text x="0" y="45" font-family="Virgil, Segoe UI Emoji" font-size="36px" fill="#1e1e1e" text-anchor="start" style="white-space: pre;" direction="ltr" dominant-baseline="text-before-edge">normal</text><text x="0" y="90" font-family="Virgil, Segoe UI Emoji" font-size="36px" fill="#1e1e1e" text-anchor="start" style="white-space: pre;" direction="ltr" dominant-baseline="text-before-edge">Eingelagert</text></g><g stroke-linecap="round"><g transform="translate(1271.5784344188864 2821.947151792534) rotate(0 149.50196094438434 99.13614826274139)"><path d="M1.3 -3.37 C-24.36 34.57, -46.62 76.4, -59.83 102.49 M1.64 -0.75 C-17.26 33.44, -37.78 65.68, -61.94 98.44 M-58.94 97.58 C-40.92 129.31, -24.16 162.65, 1.75 201.52 M-61.78 101.66 C-37.99 134.45, -15.59 173.96, 1.64 199.16 M-1.81 201.98 C67.5 203.83, 137.5 200.52, 298.55 197.74 M-1.35 199.96 C80.93 204, 161.02 201.66, 299.27 199.66 M300.23 199.48 C323.18 162.34, 341.23 131.51, 359.68 99.76 M298.11 199.77 C314.79 173.71, 333.03 144.2, 360.36 101.33 M360.94 103.87 C334.62 67.02, 311.05 25.93, 303.19 -1.95 M360.68 101.45 C347.6 79.05, 335.66 53.8, 300.09 -1.31 M298 -2.38 C232.26 -6.55, 159.34 -2.49, -1.24 -2 M299.06 -0.21 C238.24 -2.62, 176.08 -3.05, 0.8 1.42" stroke="#1e1e1e" stroke-width="4" fill="none"></path></g></g><mask></mask><g transform="translate(1308.664196465164 2860.130713963248) rotate(0 129.27593994140625 45)"><text x="0" y="0" font-family="Virgil, Segoe UI Emoji" font-size="36px" fill="#1e1e1e" text-anchor="start" style="white-space: pre;" direction="ltr" dominant-baseline="text-before-edge">Prüfbericht ist</text><text x="0" y="45" font-family="Virgil, Segoe UI Emoji" font-size="36px" fill="#1e1e1e" text-anchor="start" style="white-space: pre;" direction="ltr" dominant-baseline="text-before-edge">weitergeleitet</text></g><g stroke-linecap="round"><g transform="translate(1753.578434418887 2811.947151792534) rotate(0 149.86686892807484 100.7630916452161)"><path d="M-3.13 -2.1 C-21.69 29.66, -33.4 53.05, -63.57 98.01 M1.95 0.87 C-22.72 38.75, -47.61 75.86, -61.06 101.81 M-56.1 98.76 C-37.94 127.57, -27.52 160.8, -1.94 203.86 M-59.44 100.39 C-35.44 139.21, -12.08 178.2, 0.74 201.87 M-1.81 201.58 C72.47 199.63, 144.57 204.21, 297.71 202.48 M0.53 201.21 C81.39 199.73, 159.57 199.6, 299.78 199.18 M300.63 201.12 C319.23 162.18, 344.5 125.43, 363.31 97.25 M299.42 199.89 C322.61 160.8, 344.58 122.55, 358.89 98.42 M356.52 97.47 C341.52 68.38, 324.15 43.64, 300.76 -1.52 M358.3 99.1 C343.35 74.42, 328.34 46.43, 299.78 1 M301.08 0.95 C232.47 4.21, 168.58 2.01, 1.52 -0.12 M299.55 0.18 C220.83 -4.1, 144.15 -1.72, 1.45 -1.2" stroke="#1e1e1e" stroke-width="4" fill="none"></path></g></g><mask></mask><g transform="translate(1790.6641964651644 2850.130713963248) rotate(0 96.85795593261719 67.5)"><text x="0" y="0" font-family="Virgil, Segoe UI Emoji" font-size="36px" fill="#1e1e1e" text-anchor="start" style="white-space: pre;" direction="ltr" dominant-baseline="text-before-edge">Ware ist</text><text x="0" y="45" font-family="Virgil, Segoe UI Emoji" font-size="36px" fill="#1e1e1e" text-anchor="start" style="white-space: pre;" direction="ltr" dominant-baseline="text-before-edge">gesondert</text><text x="0" y="90" font-family="Virgil, Segoe UI Emoji" font-size="36px" fill="#1e1e1e" text-anchor="start" style="white-space: pre;" direction="ltr" dominant-baseline="text-before-edge">Eingelagert</text></g><g stroke-linecap="round"><g transform="translate(339.4944662079215 1495.6669251695275) rotate(0 149.64190023578703 98.85944799147546)"><path d="M3.2 -3.67 C-13.64 21.03, -25.31 42.76, -61.49 96.62 M-1.24 -0.18 C-14.15 20.42, -28.24 45.7, -58.2 101.44 M-60.55 100.74 C-38.23 127.88, -25.07 161.94, 0.04 196.74 M-59.13 100.86 C-45.1 127.46, -26.84 150.44, -0.45 198.62 M-2.38 197.33 C84.33 198.66, 165.99 198.12, 299.12 199.08 M-0.98 201.12 C114.69 198.36, 230.28 200.25, 300.25 198.88 M302.44 197.8 C316.31 169.07, 339.98 133.74, 359.87 97.1 M301.69 201.39 C315.88 171.75, 332.4 144.01, 360.78 99.71 M360.03 96.1 C341.68 67.79, 323.41 36.23, 302.85 -3.57 M359.82 98.36 C340.79 67.29, 322.46 37.24, 298.65 0.54 M298.19 1.8 C188.32 2.85, 74.36 0.8, 1.48 -0.55 M300.85 0.63 C197.85 3.66, 94.73 5.46, -0.86 -0.9" stroke="#1e1e1e" stroke-width="4" fill="none"></path></g></g><mask></mask><g transform="translate(376.580228254199 1533.8504873402417) rotate(0 99.16195678710938 45)"><text x="0" y="0" font-family="Virgil, Segoe UI Emoji" font-size="36px" fill="#1e1e1e" text-anchor="start" style="white-space: pre;" direction="ltr" dominant-baseline="text-before-edge">Mängel sind</text><text x="0" y="45" font-family="Virgil, Segoe UI Emoji" font-size="36px" fill="#1e1e1e" text-anchor="start" style="white-space: pre;" direction="ltr" dominant-baseline="text-before-edge">Notiert</text></g><g stroke-linecap="round"><g transform="translate(71.27952038124204 2205.01359436661) rotate(0 150.504361147061 99.43175592273474)"><path d="M-3.67 -3.01 C-19.97 38.13, -40.94 71.64, -60.66 98.7 M0.06 -1.14 C-22.73 37.83, -44.83 72.8, -61.28 100.27 M-58.4 100.15 C-46.27 124.45, -35.79 137.17, -1.07 200.73 M-58.27 100.22 C-42.63 126.89, -29.47 152.99, 0.26 200.31 M-0.9 199.81 C112.41 201.79, 231.22 201.33, 302.11 201.55 M-0.94 199.56 C80.54 202.11, 161.81 202.56, 299.32 198.81 M300.2 201.88 C316.51 175.29, 328.94 153.9, 362.29 99.76 M298.8 199.49 C317.82 169.13, 335.42 137.68, 359.52 99.18 M359.43 100.05 C341.32 63.23, 318.52 30.85, 303.78 3.78 M359.61 100.43 C342.07 71.27, 322.82 41.74, 300.61 1.44 M302.57 2.14 C226.57 -3.64, 148.86 -2.06, -1.7 0.85 M298.86 -0.62 C193.31 1.15, 85.9 -0.33, 1.43 -1.47" stroke="#1e1e1e" stroke-width="4" fill="none"></path></g></g><mask></mask><g transform="translate(108.36528242751956 2243.197156537324) rotate(0 88.41596221923828 45)"><text x="0" y="0" font-family="Virgil, Segoe UI Emoji" font-size="36px" fill="#1e1e1e" text-anchor="start" style="white-space: pre;" direction="ltr" dominant-baseline="text-before-edge">Verweigert</text><text x="0" y="45" font-family="Virgil, Segoe UI Emoji" font-size="36px" fill="#1e1e1e" text-anchor="start" style="white-space: pre;" direction="ltr" dominant-baseline="text-before-edge">Abnahme</text></g><g stroke-linecap="round"><g transform="translate(508.5489291921258 2210.5920800194144) rotate(0 150.75853123515844 99.34033110141684)"><path d="M3.23 -2.59 C-18.29 22.98, -32.13 54.65, -60.55 98.64 M0 -0.01 C-13.94 24.17, -31.36 48.95, -59.71 99.88 M-58.29 97.63 C-32.33 142.74, -8.37 176.89, -0.94 197.83 M-59.77 98.38 C-42.2 132.95, -24.56 160.45, -1.14 199.47 M-2.67 201.09 C63.05 197.2, 125.35 194.37, 301.71 198.07 M1.2 201.27 C118.16 199.28, 232.62 200.62, 299.09 201.05 M298.12 200.66 C313.29 174.49, 333.02 146.57, 362.07 99.48 M301.14 201.25 C314.84 176.28, 331.07 149.58, 359.04 99.62 M356.35 101.8 C338.48 72.79, 326.1 41.22, 303.18 -0.4 M361.01 99.05 C348.95 79.02, 335.09 58.45, 301.26 -0.3 M301.86 2.04 C210.83 2.16, 118.71 0.09, 1.83 1.94 M300.74 -1.39 C205.69 1.64, 109.53 2.07, 1.15 0.77" stroke="#1e1e1e" stroke-width="4" fill="none"></path></g></g><mask></mask><g transform="translate(545.6346912384033 2248.7756421901286) rotate(0 126.14396667480469 45)"><text x="0" y="0" font-family="Virgil, Segoe UI Emoji" font-size="36px" fill="#1e1e1e" text-anchor="start" style="white-space: pre;" direction="ltr" dominant-baseline="text-before-edge">Annahme unter</text><text x="0" y="45" font-family="Virgil, Segoe UI Emoji" font-size="36px" fill="#1e1e1e" text-anchor="start" style="white-space: pre;" direction="ltr" dominant-baseline="text-before-edge">Vorbehalt</text></g><g stroke-linecap="round"><g transform="translate(2281.5338280214255 813.652786783894) rotate(0 138.3928322641391 1.0681729778893896)"><path d="M-1.15 0.25 C62.05 4.38, 123.73 -0.59, 277.94 0.34" stroke="#1e1e1e" stroke-width="4.5" fill="none" stroke-dasharray="8 12"></path></g><g transform="translate(2281.5338280214255 813.652786783894) rotate(0 138.3928322641391 1.0681729778893896)"><path d="M248.28 11.01 C256.43 11.8, 262.39 3.02, 275.24 0.78" stroke="#1e1e1e" stroke-width="4.5" fill="none"></path></g><g transform="translate(2281.5338280214255 813.652786783894) rotate(0 138.3928322641391 1.0681729778893896)"><path d="M248.21 -9.51 C256 -4.19, 261.98 -8.43, 275.24 0.78" stroke="#1e1e1e" stroke-width="4.5" fill="none"></path></g></g><mask></mask><g transform="translate(2320.383102081716 753.8733629956841) rotate(0 98.0419921875 20.700000000000045)"><text x="0" y="0" font-family="Helvetica, Segoe UI Emoji" font-size="36px" fill="#1e1e1e" text-anchor="start" style="white-space: pre;" direction="ltr" dominant-baseline="text-before-edge">Kontrollfluss</text></g><g stroke-linecap="round" transform="translate(2320.383102081716 893.8733629956841) rotate(0 100 100)"><path d="M154.98 16.43 C165.95 21.61, 174.23 31.18, 181.03 41.8 C187.82 52.42, 192.64 67.63, 195.75 80.18 C198.87 92.72, 201.45 104.5, 199.72 117.06 C198 129.61, 192.56 144.45, 185.4 155.5 C178.24 166.56, 167.57 176.54, 156.79 183.4 C146.01 190.27, 133.21 194.19, 120.73 196.69 C108.25 199.19, 94.42 200.28, 81.91 198.39 C69.39 196.49, 56.52 191.96, 45.63 185.32 C34.74 178.68, 23.92 169.2, 16.57 158.54 C9.22 147.87, 4.22 134.25, 1.53 121.32 C-1.16 108.39, -2.24 93.47, 0.43 80.97 C3.1 68.47, 10.76 56.94, 17.55 46.32 C24.34 35.7, 30.85 24.6, 41.17 17.23 C51.49 9.86, 66.86 5.04, 79.47 2.11 C92.09 -0.82, 102.06 -4.6, 116.86 -0.36 C131.67 3.88, 158.07 20.63, 168.29 27.55 C178.52 34.46, 179.68 40.21, 178.22 41.13 M75.4 3.04 C87.02 -0.7, 102.19 0.48, 115.07 2.92 C127.94 5.35, 141.6 10.98, 152.67 17.65 C163.74 24.33, 173.87 33.36, 181.48 42.96 C189.09 52.57, 195.93 62.81, 198.31 75.26 C200.7 87.72, 198.13 105.17, 195.78 117.69 C193.42 130.21, 190.29 140.2, 184.18 150.39 C178.08 160.58, 169.37 170.89, 159.14 178.85 C148.91 186.82, 135.86 194.8, 122.81 198.19 C109.75 201.59, 93.77 201.22, 80.8 199.25 C67.83 197.28, 55.44 193.09, 44.98 186.37 C34.53 179.65, 25.17 169.59, 18.07 158.93 C10.97 148.26, 4.93 135.34, 2.38 122.36 C-0.18 109.38, 0.18 93.3, 2.72 81.06 C5.26 68.82, 10.93 59.44, 17.6 48.93 C24.28 38.41, 33.19 25.31, 42.77 17.95 C52.34 10.59, 69.18 7, 75.06 4.76 C80.94 2.51, 76.9 3.03, 78.06 4.48" stroke="#1e1e1e" stroke-width="4" fill="none"></path></g><g stroke-linecap="round"><g transform="translate(2380.383102081716 1013.8733629956841) rotate(0 40.68040726147592 -30.99149758182466)"><path d="M0.68 -2.28 C14.19 -21.63, 24.51 -38.47, 42.76 -61.22 M1.97 -1.15 C17.02 -22.28, 30.17 -42.14, 38.82 -61.59 M39.35 -61.69 C50.53 -37.78, 62.93 -21.91, 79.44 -0.27 M39.35 -61.71 C56 -40.71, 66.57 -18.24, 80.68 -1.84" stroke="#1e1e1e" stroke-width="4" fill="none"></path></g></g><mask></mask><g stroke-linecap="round" transform="translate(1616.383102081717 2255.873362995684) rotate(0 100 100)"><path d="M73.34 1.72 C84.97 -2.54, 102.39 -1.41, 115.47 0.65 C128.55 2.72, 141.1 7.86, 151.82 14.12 C162.54 20.37, 172.08 28.3, 179.79 38.19 C187.49 48.08, 194.68 61.02, 198.05 73.48 C201.42 85.94, 201.86 100.19, 199.99 112.95 C198.12 125.71, 193.42 139.07, 186.83 150.04 C180.24 161.01, 170.95 170.79, 160.45 178.75 C149.94 186.72, 136.36 194.51, 123.8 197.81 C111.25 201.1, 97.45 200.75, 85.12 198.53 C72.79 196.32, 60.61 191.13, 49.8 184.53 C39 177.94, 27.93 169.14, 20.29 158.98 C12.64 148.82, 7.13 135.87, 3.94 123.57 C0.74 111.26, -0.49 97.38, 1.11 85.15 C2.71 72.92, 6.89 61.2, 13.54 50.2 C20.18 39.2, 22.4 26.7, 40.99 19.15 C59.58 11.59, 104.01 2.81, 125.1 4.88 C146.19 6.94, 167.94 30.06, 167.51 31.54 M60.97 8.08 C71.43 1.54, 84.41 -1.63, 97.8 -1.77 C111.19 -1.92, 129.16 1.61, 141.3 7.21 C153.44 12.8, 161.66 22.93, 170.65 31.8 C179.63 40.66, 190.29 49.25, 195.22 60.41 C200.14 71.56, 200.4 85.19, 200.18 98.72 C199.96 112.24, 198.77 129.86, 193.9 141.57 C189.03 153.28, 180.8 160.89, 170.97 168.98 C161.13 177.08, 147.3 185.42, 134.89 190.13 C122.47 194.85, 108.96 197.08, 96.46 197.27 C83.96 197.46, 71.5 195.66, 59.88 191.3 C48.27 186.95, 35.73 179.59, 26.76 171.12 C17.79 162.66, 10.48 152.9, 6.07 140.52 C1.66 128.14, -0.32 110.04, 0.31 96.83 C0.94 83.62, 4.62 72.21, 9.85 61.28 C15.08 50.35, 22.58 40.71, 31.67 31.23 C40.76 21.75, 58.98 8.53, 64.39 4.42 C69.79 0.3, 63.98 4.18, 64.09 6.54" stroke="#1e1e1e" stroke-width="4" fill="none"></path></g><g stroke-linecap="round"><g transform="translate(1676.383102081717 2375.873362995684) rotate(0 39.25139982625842 -30.16122803837061)"><path d="M-1.02 -0.09 C4.47 -16.98, 14.46 -24.13, 39.39 -57.69 M1.26 -1.39 C13.63 -19.25, 25.96 -38.01, 40.18 -61.05 M38.98 -59.07 C46.57 -45.41, 56.7 -30.15, 76.85 0.3 M41.26 -61.05 C49.28 -43.91, 58.87 -28.8, 79.52 0.73" stroke="#1e1e1e" stroke-width="4" fill="none"></path></g></g><mask></mask><g stroke-linecap="round" transform="translate(1758 730) rotate(0 100 100)"><path d="M48.34 15.23 C57.69 6.94, 69.65 1.36, 82.34 -0.54 C95.03 -2.45, 111.53 0.69, 124.48 3.8 C137.44 6.91, 150.18 10.61, 160.06 18.11 C169.94 25.61, 177.08 37.56, 183.75 48.8 C190.42 60.04, 198.1 72.96, 200.1 85.56 C202.1 98.16, 199.21 112.17, 195.77 124.4 C192.32 136.62, 186.49 149.05, 179.44 158.88 C172.39 168.71, 163.85 176.48, 153.46 183.39 C143.06 190.3, 129.75 197.72, 117.07 200.34 C104.39 202.97, 90.2 202.05, 77.37 199.16 C64.54 196.26, 50.27 191, 40.11 182.97 C29.95 174.95, 22.83 162.07, 16.4 150.99 C9.96 139.9, 3.92 128.88, 1.5 116.45 C-0.92 104.02, -0.95 88.95, 1.88 76.41 C4.7 63.86, 3.98 53.7, 18.43 41.19 C32.88 28.68, 69.64 6.78, 88.58 1.33 C107.52 -4.12, 131.75 6.89, 132.07 8.51 M56.54 7.96 C66.85 1.61, 82.45 1.8, 94.75 1.26 C107.05 0.71, 118.57 0.21, 130.36 4.68 C142.14 9.14, 155.79 19.41, 165.44 28.04 C175.1 36.68, 182.24 45.77, 188.29 56.5 C194.34 67.23, 200.24 79.91, 201.74 92.42 C203.25 104.93, 201.44 119.73, 197.3 131.55 C193.16 143.37, 185.72 153.72, 176.91 163.34 C168.09 172.95, 155.79 183.3, 144.41 189.23 C133.03 195.17, 121.33 198.08, 108.65 198.95 C95.96 199.81, 80.98 197.99, 68.3 194.4 C55.62 190.82, 41.98 185.99, 32.58 177.43 C23.18 168.87, 16.89 154.54, 11.9 143.05 C6.91 131.56, 3.26 120.69, 2.64 108.5 C2.02 96.31, 4.58 82.84, 8.17 69.9 C11.76 56.95, 16.49 40.33, 24.2 30.84 C31.91 21.35, 48.51 16.06, 54.44 12.96 C60.36 9.85, 58.37 11.22, 59.76 12.22" stroke="#1e1e1e" stroke-width="4" fill="none"></path></g><g transform="translate(1821.7533340273412 807.2893218813451) rotate(0 36.035987854003906 22.5)"><text x="36.035987854003906" y="0" font-family="Virgil, Segoe UI Emoji" font-size="36px" fill="#1e1e1e" text-anchor="middle" style="white-space: pre;" direction="ltr" dominant-baseline="text-before-edge">XOR</text></g><g stroke-linecap="round" transform="translate(2320.383102081716 1133.8733629956841) rotate(0 100 100)"><path d="M118.43 3.48 C130.93 4.57, 145.88 11.85, 156.57 18.44 C167.25 25.03, 175.9 32.71, 182.57 43.05 C189.24 53.38, 194.12 67.43, 196.6 80.45 C199.07 93.46, 199.33 108.65, 197.41 121.14 C195.5 133.64, 192.09 145.3, 185.09 155.44 C178.09 165.58, 166.62 175.19, 155.42 181.98 C144.22 188.77, 130.21 193.43, 117.89 196.2 C105.57 198.97, 93.78 200.85, 81.5 198.6 C69.22 196.35, 54.72 190.03, 44.22 182.72 C33.72 175.41, 25.74 165.06, 18.51 154.74 C11.28 144.43, 3.68 132.94, 0.84 120.82 C-2.01 108.69, -1.48 94.62, 1.43 82 C4.35 69.37, 11.28 55.86, 18.3 45.07 C25.33 34.28, 32.92 24.6, 43.59 17.25 C54.27 9.9, 66.55 2.74, 82.34 0.97 C98.13 -0.8, 126.39 3.95, 138.33 6.62 C150.28 9.29, 154.66 15.5, 154.03 16.99 M15.45 42.07 C20.67 31.16, 32.65 24.21, 43.88 17.16 C55.11 10.11, 69.81 2.62, 82.84 -0.21 C95.87 -3.05, 109.45 -2.88, 122.08 0.16 C134.71 3.21, 148.12 10.36, 158.61 18.06 C169.11 25.76, 178.84 35.87, 185.05 46.36 C191.26 56.84, 193.47 68.86, 195.88 80.97 C198.29 93.09, 201.82 106.32, 199.53 119.05 C197.24 131.77, 189.56 146.4, 182.16 157.35 C174.75 168.3, 165.8 177.87, 155.09 184.74 C144.38 191.62, 130.21 196.56, 117.9 198.59 C105.6 200.63, 93.99 199.64, 81.24 196.95 C68.48 194.26, 52.44 189.63, 41.37 182.46 C30.29 175.29, 21.54 164.09, 14.76 153.94 C7.98 143.8, 2.48 133.93, 0.68 121.58 C-1.11 109.24, 1.4 92.42, 3.98 79.87 C6.56 67.33, 13.68 52.17, 16.16 46.31 C18.65 40.46, 17.89 44.34, 18.91 44.75" stroke="#1e1e1e" stroke-width="4" fill="none"></path></g><g transform="translate(2380.415994258811 1215.082663455717) rotate(0 36.035987854003906 22.5)"><text x="0" y="0" font-family="Virgil, Segoe UI Emoji" font-size="36px" fill="#1e1e1e" text-anchor="start" style="white-space: pre;" direction="ltr" dominant-baseline="text-before-edge">XOR</text></g><g stroke-linecap="round" transform="translate(332.38310208171697 1981.873362995684) rotate(0 100 100)"><path d="M116.75 1.7 C129.11 2.08, 141.76 9.79, 152.61 16.2 C163.45 22.61, 174.54 29.71, 181.79 40.16 C189.04 50.61, 193.57 66.26, 196.09 78.91 C198.62 91.56, 199.12 104.03, 196.94 116.05 C194.77 128.06, 189.6 140.23, 183.07 151 C176.53 161.76, 167.63 172.98, 157.74 180.65 C147.85 188.32, 136.37 193.68, 123.74 196.99 C111.11 200.29, 94.94 202.44, 81.95 200.46 C68.96 198.49, 56.2 191.98, 45.82 185.15 C35.45 178.32, 27.13 169.9, 19.7 159.51 C12.26 149.11, 4.51 135.18, 1.21 122.8 C-2.09 110.43, -2.58 97.74, -0.11 85.27 C2.36 72.81, 9.36 59.09, 16.03 48.02 C22.71 36.95, 30.03 26.16, 39.92 18.87 C49.81 11.58, 54.98 3.7, 75.39 4.29 C95.79 4.88, 143.25 12.49, 162.36 22.42 C181.48 32.35, 191.32 62.91, 190.07 63.87 M110.68 0.28 C123.14 -0.19, 139.18 3.49, 150.08 9.48 C160.99 15.46, 168.44 25.53, 176.1 36.19 C183.77 46.85, 192.25 60.67, 196.06 73.44 C199.88 86.2, 200.47 100.02, 198.98 112.79 C197.49 125.56, 192.74 139.02, 187.11 150.08 C181.47 161.13, 174.82 171.22, 165.17 179.13 C155.52 187.04, 141.55 194.02, 129.21 197.54 C116.87 201.06, 103.49 201.37, 91.13 200.24 C78.77 199.12, 66.32 197.11, 55.04 190.78 C43.76 184.46, 32.03 173.08, 23.45 162.31 C14.87 151.54, 7.2 137.85, 3.57 126.17 C-0.05 114.48, 0.32 104.09, 1.72 92.21 C3.13 80.32, 6.4 66.71, 12.02 54.86 C17.64 43, 25.9 29.82, 35.42 21.09 C44.95 12.36, 56.99 5.77, 69.14 2.46 C81.29 -0.84, 101.43 1.74, 108.31 1.25 C115.19 0.76, 110.06 -1.72, 110.41 -0.48" stroke="#1e1e1e" stroke-width="4" fill="none"></path></g><g transform="translate(392.41599425881213 2063.082663455717) rotate(0 36.035987854003906 22.5)"><text x="0" y="0" font-family="Virgil, Segoe UI Emoji" font-size="36px" fill="#1e1e1e" text-anchor="start" style="white-space: pre;" direction="ltr" dominant-baseline="text-before-edge">XOR</text></g><g stroke-linecap="round" transform="translate(2338 1370) rotate(0 100 100)"><path d="M24.31 36.05 C31.28 26.25, 43.76 18.77, 54.72 12.91 C65.68 7.05, 77.68 2.22, 90.05 0.91 C102.42 -0.39, 116.33 1.25, 128.96 5.09 C141.58 8.93, 156.1 15.48, 165.79 23.97 C175.49 32.46, 181.4 44.94, 187.12 56.04 C192.85 67.14, 198.53 78.12, 200.16 90.57 C201.79 103.01, 200.6 118.35, 196.92 130.7 C193.25 143.05, 186.83 154.93, 178.13 164.67 C169.44 174.4, 156.24 183.18, 144.73 189.09 C133.22 195, 121.55 198.91, 109.06 200.14 C96.57 201.37, 82.19 200.18, 69.8 196.46 C57.41 192.75, 44.44 186.01, 34.7 177.83 C24.95 169.64, 16.79 158.75, 11.32 147.37 C5.85 136, 2.71 122.82, 1.86 109.57 C1.02 96.32, 0.57 82.2, 6.24 67.87 C11.9 53.55, 29.2 32.09, 35.84 23.62 C42.48 15.14, 45.17 15.88, 46.07 17.01 M99.67 -0.77 C112.06 -2.77, 127.58 0.4, 139.72 5.68 C151.85 10.97, 163.93 21.13, 172.48 30.94 C181.03 40.75, 186.26 52.97, 191 64.56 C195.75 76.15, 200.34 88.38, 200.93 100.49 C201.53 112.59, 199.29 125.27, 194.57 137.22 C189.85 149.16, 182.45 163.37, 172.61 172.16 C162.77 180.94, 147.85 185.53, 135.52 189.93 C123.19 194.34, 111.39 197.99, 98.61 198.58 C85.83 199.18, 70.69 198.42, 58.83 193.49 C46.98 188.56, 35.81 178.63, 27.47 168.99 C19.13 159.35, 12.89 146.95, 8.79 135.66 C4.69 124.36, 2.9 113.28, 2.88 101.2 C2.86 89.12, 4.6 74.79, 8.69 63.18 C12.78 51.57, 18.83 40.54, 27.44 31.53 C36.04 22.53, 48.12 13.98, 60.32 9.14 C72.52 4.31, 94.06 3.53, 100.63 2.51 C107.21 1.5, 100.15 2.25, 99.76 3.03" stroke="#1e1e1e" stroke-width="4" fill="none"></path></g><g stroke-linecap="round"><g transform="translate(2401.4777564033866 1452.7793478742242) rotate(0 39.691300727427006 29.278314970433712)"><path d="M-3.48 -2.78 C8.09 16.86, 21.15 31.68, 43.52 56.89 M1.26 0.36 C10.54 21.46, 25.9 38.17, 41.65 60.32 M40.48 61.34 C56.38 37.6, 73.25 12.48, 82.86 0.33 M41.51 58.25 C55.88 35.84, 68.13 14.05, 80.64 -1.97" stroke="#1e1e1e" stroke-width="4" fill="none"></path></g></g><mask></mask><g stroke-linecap="round" transform="translate(618 630) rotate(0 100 100)"><path d="M171.7 29.01 C181.22 35.78, 186.22 47.57, 190.93 58.97 C195.64 70.37, 199.68 84.52, 199.96 97.42 C200.25 110.32, 197.56 124.31, 192.65 136.37 C187.73 148.42, 179.11 160.81, 170.45 169.77 C161.79 178.73, 152.03 184.95, 140.68 190.1 C129.32 195.26, 115.15 200.4, 102.33 200.71 C89.52 201.02, 75.47 196.56, 63.77 191.95 C52.08 187.33, 41.64 181.77, 32.19 173.01 C22.74 164.25, 12.13 151.55, 7.08 139.37 C2.03 127.2, 2.1 112.52, 1.9 99.94 C1.7 87.37, 1.15 75.32, 5.88 63.93 C10.6 52.53, 21.43 40.74, 30.24 31.57 C39.05 22.4, 47.36 14.4, 58.74 8.91 C70.11 3.42, 85.76 -1.08, 98.49 -1.37 C111.23 -1.66, 122.3 0.88, 135.16 7.16 C148.02 13.43, 168.15 29.44, 175.65 36.28 C183.14 43.12, 181 47.38, 180.14 48.19 M110.58 3.45 C122.69 3.31, 134.77 7.17, 145.52 12.6 C156.26 18.04, 166.17 26.2, 175.06 36.05 C183.95 45.9, 195 59.59, 198.84 71.72 C202.67 83.85, 199.63 95.74, 198.05 108.84 C196.47 121.94, 194.97 139.26, 189.34 150.32 C183.72 161.39, 174.09 167.42, 164.29 175.22 C154.5 183.03, 143.49 193.59, 130.6 197.15 C117.7 200.7, 100.1 197.62, 86.92 196.54 C73.74 195.45, 61.87 195.87, 51.52 190.63 C41.17 185.39, 32.42 175.98, 24.82 165.11 C17.22 154.23, 9.5 138.3, 5.94 125.38 C2.38 112.46, 2.71 99.92, 3.47 87.58 C4.22 75.23, 4.4 62.52, 10.46 51.31 C16.53 40.09, 29.91 28, 39.84 20.3 C49.77 12.61, 58.17 8.18, 70.04 5.15 C81.92 2.13, 103.87 2.22, 111.1 2.14 C118.32 2.06, 113.41 3.26, 113.39 4.67" stroke="#1e1e1e" stroke-width="4" fill="none"></path></g><g transform="translate(681.7533340273412 707.2893218813451) rotate(0 36.035987854003906 22.5)"><text x="36.035987854003906" y="0" font-family="Virgil, Segoe UI Emoji" font-size="36px" fill="#1e1e1e" text-anchor="middle" style="white-space: pre;" direction="ltr" dominant-baseline="text-before-edge">XOR</text></g><g stroke-linecap="round" transform="translate(1798 1750) rotate(0 100 100)"><path d="M170.38 28.55 C180.58 35.66, 188.01 46.67, 193.23 58.36 C198.44 70.05, 201.82 85.72, 201.68 98.68 C201.54 111.65, 197.18 124.54, 192.4 136.15 C187.62 147.76, 181.49 159.19, 173.01 168.36 C164.53 177.54, 153.44 185.6, 141.53 191.19 C129.63 196.77, 114.3 201.41, 101.58 201.88 C88.87 202.34, 76.87 198.98, 65.22 193.99 C53.58 189, 40.88 180.73, 31.71 171.94 C22.55 163.15, 15.73 152.83, 10.25 141.24 C4.76 129.65, -0.7 115.18, -1.19 102.38 C-1.69 89.59, 2.27 76.42, 7.27 64.48 C12.28 52.54, 20.09 40.16, 28.85 30.75 C37.61 21.34, 48.68 13.09, 59.83 8.02 C70.97 2.94, 83.09 0.53, 95.72 0.31 C108.34 0.09, 118.63 -5.05, 135.58 6.71 C152.53 18.48, 187.21 51.86, 197.41 70.89 C207.6 89.92, 198.32 120.74, 196.75 120.89 M62.93 8.34 C73.72 3.03, 93.28 0.65, 106.69 0.57 C120.1 0.49, 132.13 3.01, 143.38 7.86 C154.64 12.72, 165.92 20.24, 174.24 29.69 C182.56 39.14, 189.39 52.18, 193.31 64.58 C197.23 76.97, 198 90.67, 197.75 104.05 C197.5 117.44, 197.01 133.67, 191.83 144.89 C186.64 156.11, 176.37 163.58, 166.65 171.39 C156.93 179.2, 145.13 186.62, 133.5 191.75 C121.87 196.88, 109.58 202, 96.87 202.19 C84.16 202.37, 69.1 198.98, 57.24 192.87 C45.39 186.75, 33.82 175.55, 25.76 165.49 C17.71 155.42, 13.32 143.73, 8.92 132.47 C4.53 121.21, -0.64 110.62, -0.6 97.91 C-0.56 85.19, 3.91 68.07, 9.15 56.18 C14.38 44.28, 21.42 35.29, 30.81 26.54 C40.21 17.78, 59.8 7.05, 65.52 3.65 C71.23 0.24, 64.22 3.66, 65.08 6.12" stroke="#1e1e1e" stroke-width="4" fill="none"></path></g><g transform="translate(1861.7533340273412 1827.2893218813451) rotate(0 36.035987854003906 22.5)"><text x="36.035987854003906" y="0" font-family="Virgil, Segoe UI Emoji" font-size="36px" fill="#1e1e1e" text-anchor="middle" style="white-space: pre;" direction="ltr" dominant-baseline="text-before-edge">XOR</text></g><g transform="translate(2600.383102081716 973.8733629956841) rotate(0 38.483985900878906 22.5)"><text x="0" y="0" font-family="Virgil, Segoe UI Emoji" font-size="36px" fill="#1e1e1e" text-anchor="start" style="white-space: pre;" direction="ltr" dominant-baseline="text-before-edge">UND</text></g><g transform="translate(2578 1450) rotate(0 51.44397735595703 22.5)"><text x="0" y="0" font-family="Virgil, Segoe UI Emoji" font-size="36px" fill="#1e1e1e" text-anchor="start" style="white-space: pre;" direction="ltr" dominant-baseline="text-before-edge">ODER</text></g><g transform="translate(2560.383102081716 1173.8733629956841) rotate(0 97.72195434570312 45)"><text x="0" y="0" font-family="Virgil, Segoe UI Emoji" font-size="36px" fill="#1e1e1e" text-anchor="start" style="white-space: pre;" direction="ltr" dominant-baseline="text-before-edge">Exklusives </text><text x="0" y="45" font-family="Virgil, Segoe UI Emoji" font-size="36px" fill="#1e1e1e" text-anchor="start" style="white-space: pre;" direction="ltr" dominant-baseline="text-before-edge">Oder</text></g><g stroke-linecap="round"><g transform="translate(718 250) rotate(0 0 70)"><path d="M0 0 C0 38.67, 0 77.34, 0 140" stroke="#1e1e1e" stroke-width="4.5" fill="none" stroke-dasharray="8 12"></path></g><g transform="translate(718 250) rotate(0 0 70)"><path d="M-10.26 111.81 C-7.43 119.6, -4.59 127.38, 0 140" stroke="#1e1e1e" stroke-width="4.5" fill="none"></path></g><g transform="translate(718 250) rotate(0 0 70)"><path d="M10.26 111.81 C7.43 119.6, 4.59 127.38, 0 140" stroke="#1e1e1e" stroke-width="4.5" fill="none"></path></g></g><mask></mask><g stroke-linecap="round"><g transform="translate(718 570) rotate(0 0 30)"><path d="M0 0 C0 15.51, 0 31.03, 0 60" stroke="#1e1e1e" stroke-width="4.5" fill="none" stroke-dasharray="8 12"></path></g><g transform="translate(718 570) rotate(0 0 30)"><path d="M-10.26 31.81 C-7.61 39.1, -4.95 46.39, 0 60" stroke="#1e1e1e" stroke-width="4.5" fill="none"></path></g><g transform="translate(718 570) rotate(0 0 30)"><path d="M10.26 31.81 C7.61 39.1, 4.95 46.39, 0 60" stroke="#1e1e1e" stroke-width="4.5" fill="none"></path></g></g><mask></mask><g stroke-linecap="round"><g transform="translate(718 830) rotate(0 -110 60)"><path d="M0 0 C-66.54 36.29, -133.08 72.59, -220 120" stroke="#1e1e1e" stroke-width="4.5" fill="none" stroke-dasharray="8 12"></path></g><g transform="translate(718 830) rotate(0 -110 60)"><path d="M-200.16 97.49 C-206.16 104.3, -212.16 111.11, -220 120" stroke="#1e1e1e" stroke-width="4.5" fill="none"></path></g><g transform="translate(718 830) rotate(0 -110 60)"><path d="M-190.34 115.51 C-199.31 116.87, -208.28 118.23, -220 120" stroke="#1e1e1e" stroke-width="4.5" fill="none"></path></g></g><mask></mask><g stroke-linecap="round"><g transform="translate(718 830) rotate(0 170 60)"><path d="M0 0 C135.11 47.69, 270.22 95.37, 340 120" stroke="#1e1e1e" stroke-width="4.5" fill="none" stroke-dasharray="8 12"></path></g><g transform="translate(718 830) rotate(0 170 60)"><path d="M310 120.29 C321.92 120.18, 333.84 120.06, 340 120" stroke="#1e1e1e" stroke-width="4.5" fill="none"></path></g><g transform="translate(718 830) rotate(0 170 60)"><path d="M316.83 100.94 C326.04 108.52, 335.24 116.09, 340 120" stroke="#1e1e1e" stroke-width="4.5" fill="none"></path></g></g><mask></mask><g stroke-linecap="round"><g transform="translate(458 1150) rotate(0 0 40)"><path d="M0 0 C0 27.6, 0 55.2, 0 80" stroke="#1e1e1e" stroke-width="4.5" fill="none" stroke-dasharray="8 12"></path></g><g transform="translate(458 1150) rotate(0 0 40)"><path d="M-10.26 51.81 C-6.72 61.54, -3.18 71.26, 0 80" stroke="#1e1e1e" stroke-width="4.5" fill="none"></path></g><g transform="translate(458 1150) rotate(0 0 40)"><path d="M10.26 51.81 C6.72 61.54, 3.18 71.26, 0 80" stroke="#1e1e1e" stroke-width="4.5" fill="none"></path></g></g><mask></mask><g stroke-linecap="round"><g transform="translate(1058 1150) rotate(0 0 30)"><path d="M0 0 C0 20.19, 0 40.39, 0 60" stroke="#1e1e1e" stroke-width="4.5" fill="none" stroke-dasharray="8 12"></path></g><g transform="translate(1058 1150) rotate(0 0 30)"><path d="M-10.26 31.81 C-6.81 41.3, -3.35 50.79, 0 60" stroke="#1e1e1e" stroke-width="4.5" fill="none"></path></g><g transform="translate(1058 1150) rotate(0 0 30)"><path d="M10.26 31.81 C6.81 41.3, 3.35 50.79, 0 60" stroke="#1e1e1e" stroke-width="4.5" fill="none"></path></g></g><mask></mask><g stroke-linecap="round"><g transform="translate(458 1430) rotate(0 0 40)"><path d="M0 0 C0 25.37, 0 50.73, 0 80" stroke="#1e1e1e" stroke-width="4.5" fill="none" stroke-dasharray="8 12"></path></g><g transform="translate(458 1430) rotate(0 0 40)"><path d="M-10.26 51.81 C-7.01 60.75, -3.75 69.69, 0 80" stroke="#1e1e1e" stroke-width="4.5" fill="none"></path></g><g transform="translate(458 1430) rotate(0 0 40)"><path d="M10.26 51.81 C7.01 60.75, 3.75 69.69, 0 80" stroke="#1e1e1e" stroke-width="4.5" fill="none"></path></g></g><mask></mask><g stroke-linecap="round"><g transform="translate(1058 1410) rotate(0 0 30)"><path d="M0 0 C0 22.11, 0 44.23, 0 60" stroke="#1e1e1e" stroke-width="4.5" fill="none" stroke-dasharray="8 12"></path></g><g transform="translate(1058 1410) rotate(0 0 30)"><path d="M-10.26 31.81 C-6.48 42.2, -2.7 52.59, 0 60" stroke="#1e1e1e" stroke-width="4.5" fill="none"></path></g><g transform="translate(1058 1410) rotate(0 0 30)"><path d="M10.26 31.81 C6.48 42.2, 2.7 52.59, 0 60" stroke="#1e1e1e" stroke-width="4.5" fill="none"></path></g></g><mask></mask><g stroke-linecap="round"><g transform="translate(478 1710) rotate(0 -1.0340136054421691 20)"><path d="M0 0 C-0.81 15.7, -1.62 31.4, -2.07 40" stroke="#1e1e1e" stroke-width="4.5" fill="none" stroke-dasharray="8 12"></path></g><g transform="translate(478 1710) rotate(0 -1.0340136054421691 20)"><path d="M-7.94 20.85 C-5.63 28.37, -3.33 35.88, -2.07 40" stroke="#1e1e1e" stroke-width="4.5" fill="none"></path></g><g transform="translate(478 1710) rotate(0 -1.0340136054421691 20)"><path d="M5.74 21.56 C2.68 28.8, -0.39 36.04, -2.07 40" stroke="#1e1e1e" stroke-width="4.5" fill="none"></path></g></g><mask></mask><g stroke-linecap="round"><g transform="translate(1058 1690) rotate(0 340 -420)"><path d="M0 0 C0 9.22, 0 18.44, 0 40 M0 40 C126.64 40, 253.29 40, 380 40 M380 40 C380 -237.78, 380 -515.55, 380 -880 M380 -880 C455.15 -880, 530.31 -880, 680 -880" stroke="#1e1e1e" stroke-width="4.5" fill="none" stroke-dasharray="8 12"></path></g><g transform="translate(1058 1690) rotate(0 340 -420)"><path d="M651.81 -869.74 C658.31 -872.11, 664.81 -874.47, 680 -880" stroke="#1e1e1e" stroke-width="4.5" fill="none"></path></g><g transform="translate(1058 1690) rotate(0 340 -420)"><path d="M651.81 -890.26 C658.31 -887.89, 664.81 -885.53, 680 -880" stroke="#1e1e1e" stroke-width="4.5" fill="none"></path></g></g><mask></mask><g stroke-linecap="round"><g transform="translate(866 2302) rotate(0 436 -721)"><path d="M0 0 C1.25 1.25, 2.49 2.49, 4 4 M4 4 C208.4 6.06, 412.8 8.13, 598 10 M598 10 C602.21 -429.6, 606.42 -869.2, 612 -1452 M612 -1452 C707.12 -1452, 802.25 -1452, 872 -1452" stroke="#1e1e1e" stroke-width="4.5" fill="none" stroke-dasharray="8 12"></path></g><g transform="translate(866 2302) rotate(0 436 -721)"><path d="M843.81 -1441.74 C852.59 -1444.94, 861.38 -1448.13, 872 -1452" stroke="#1e1e1e" stroke-width="4.5" fill="none"></path></g><g transform="translate(866 2302) rotate(0 436 -721)"><path d="M843.81 -1462.26 C852.59 -1459.06, 861.38 -1455.87, 872 -1452" stroke="#1e1e1e" stroke-width="4.5" fill="none"></path></g></g><mask></mask><g stroke-linecap="round"><g transform="translate(1858 930) rotate(0 0 30)"><path d="M0 0 C0 21.67, 0 43.35, 0 60" stroke="#1e1e1e" stroke-width="4.5" fill="none" stroke-dasharray="8 12"></path></g><g transform="translate(1858 930) rotate(0 0 30)"><path d="M-10.26 31.81 C-6.55 41.99, -2.85 52.17, 0 60" stroke="#1e1e1e" stroke-width="4.5" fill="none"></path></g><g transform="translate(1858 930) rotate(0 0 30)"><path d="M10.26 31.81 C6.55 41.99, 2.85 52.17, 0 60" stroke="#1e1e1e" stroke-width="4.5" fill="none"></path></g></g><mask></mask><g stroke-linecap="round"><g transform="translate(1878 1190) rotate(0 0 30)"><path d="M0 0 C0 18.13, 0 36.26, 0 60" stroke="#1e1e1e" stroke-width="4.5" fill="none" stroke-dasharray="8 12"></path></g><g transform="translate(1878 1190) rotate(0 0 30)"><path d="M-10.26 31.81 C-7.16 40.33, -4.06 48.85, 0 60" stroke="#1e1e1e" stroke-width="4.5" fill="none"></path></g><g transform="translate(1878 1190) rotate(0 0 30)"><path d="M10.26 31.81 C7.16 40.33, 4.06 48.85, 0 60" stroke="#1e1e1e" stroke-width="4.5" fill="none"></path></g></g><mask></mask><g stroke-linecap="round"><g transform="translate(1878 1450) rotate(0 0 20)"><path d="M0 0 C0 8.8, 0 17.6, 0 40" stroke="#1e1e1e" stroke-width="4.5" fill="none" stroke-dasharray="8 12"></path></g><g transform="translate(1878 1450) rotate(0 0 20)"><path d="M-6.84 21.21 C-5.34 25.34, -3.83 29.48, 0 40" stroke="#1e1e1e" stroke-width="4.5" fill="none"></path></g><g transform="translate(1878 1450) rotate(0 0 20)"><path d="M6.84 21.21 C5.34 25.34, 3.83 29.48, 0 40" stroke="#1e1e1e" stroke-width="4.5" fill="none"></path></g></g><mask></mask><g stroke-linecap="round"><g transform="translate(1898 1690) rotate(0 0 30)"><path d="M0 0 C0 12.75, 0 25.51, 0 60" stroke="#1e1e1e" stroke-width="4.5" fill="none" stroke-dasharray="8 12"></path></g><g transform="translate(1898 1690) rotate(0 0 30)"><path d="M-10.26 31.81 C-8.08 37.8, -5.9 43.79, 0 60" stroke="#1e1e1e" stroke-width="4.5" fill="none"></path></g><g transform="translate(1898 1690) rotate(0 0 30)"><path d="M10.26 31.81 C8.08 37.8, 5.9 43.79, 0 60" stroke="#1e1e1e" stroke-width="4.5" fill="none"></path></g></g><mask></mask><g stroke-linecap="round"><g transform="translate(1838 1930) rotate(0 -60 30)"><path d="M0 0 C-27.53 13.77, -55.06 27.53, -120 60" stroke="#1e1e1e" stroke-width="4.5" fill="none" stroke-dasharray="8 12"></path></g><g transform="translate(1838 1930) rotate(0 -60 30)"><path d="M-99.37 38.22 C-104.11 43.21, -108.84 48.21, -120 60" stroke="#1e1e1e" stroke-width="4.5" fill="none"></path></g><g transform="translate(1838 1930) rotate(0 -60 30)"><path d="M-90.2 56.57 C-97.03 57.36, -103.87 58.14, -120 60" stroke="#1e1e1e" stroke-width="4.5" fill="none"></path></g></g><mask></mask><g stroke-linecap="round"><g transform="translate(1978 1910) rotate(0 90 40)"><path d="M0 0 C63.17 28.08, 126.34 56.15, 180 80" stroke="#1e1e1e" stroke-width="4.5" fill="none" stroke-dasharray="8 12"></path></g><g transform="translate(1978 1910) rotate(0 90 40)"><path d="M150.07 77.93 C160.58 78.65, 171.08 79.38, 180 80" stroke="#1e1e1e" stroke-width="4.5" fill="none"></path></g><g transform="translate(1978 1910) rotate(0 90 40)"><path d="M158.41 59.17 C165.98 66.48, 173.56 73.79, 180 80" stroke="#1e1e1e" stroke-width="4.5" fill="none"></path></g></g><mask></mask><g stroke-linecap="round"><g transform="translate(1718 2190) rotate(0 0 30)"><path d="M0 0 C0 13.44, 0 26.88, 0 60" stroke="#1e1e1e" stroke-width="4.5" fill="none" stroke-dasharray="8 12"></path></g><g transform="translate(1718 2190) rotate(0 0 30)"><path d="M-10.26 31.81 C-7.96 38.12, -5.66 44.44, 0 60" stroke="#1e1e1e" stroke-width="4.5" fill="none"></path></g><g transform="translate(1718 2190) rotate(0 0 30)"><path d="M10.26 31.81 C7.96 38.12, 5.66 44.44, 0 60" stroke="#1e1e1e" stroke-width="4.5" fill="none"></path></g></g><mask></mask><g stroke-linecap="round"><g transform="translate(2218 2190) rotate(0 0 30)"><path d="M0 0 C0 18.74, 0 37.49, 0 60" stroke="#1e1e1e" stroke-width="4.5" fill="none" stroke-dasharray="8 12"></path></g><g transform="translate(2218 2190) rotate(0 0 30)"><path d="M-10.26 31.81 C-7.06 40.62, -3.85 49.42, 0 60" stroke="#1e1e1e" stroke-width="4.5" fill="none"></path></g><g transform="translate(2218 2190) rotate(0 0 30)"><path d="M10.26 31.81 C7.06 40.62, 3.85 49.42, 0 60" stroke="#1e1e1e" stroke-width="4.5" fill="none"></path></g></g><mask></mask><g transform="translate(2018 10) rotate(0 339.83984375 45)"><text x="0" y="0" font-family="Virgil, Segoe UI Emoji" font-size="36px" fill="#1e1e1e" text-anchor="start" style="white-space: pre;" direction="ltr" dominant-baseline="text-before-edge">EPK- Ereignisgesteuerte Prozesskette</text><text x="0" y="45" font-family="Virgil, Segoe UI Emoji" font-size="36px" fill="#1e1e1e" text-anchor="start" style="white-space: pre;" direction="ltr" dominant-baseline="text-before-edge">Legende</text></g><g stroke-linecap="round"><g transform="translate(329.35714285714266 2125.7619047619046) rotate(0 -105.68595591634516 38.82196210473779)"><path d="M-0.94 0.44 C-35.93 13.49, -175.77 64.36, -210.43 77.2" stroke="#1e1e1e" stroke-width="4.5" fill="none" stroke-dasharray="8 12"></path></g><g transform="translate(329.35714285714266 2125.7619047619046) rotate(0 -105.68595591634516 38.82196210473779)"><path d="M-186.77 57.15 C-194.93 64.51, -200.37 66.12, -209.96 78.22" stroke="#1e1e1e" stroke-width="4.5" fill="none"></path></g><g transform="translate(329.35714285714266 2125.7619047619046) rotate(0 -105.68595591634516 38.82196210473779)"><path d="M-179.7 76.41 C-189.51 78.74, -196.78 75.37, -209.96 78.22" stroke="#1e1e1e" stroke-width="4.5" fill="none"></path></g></g><mask></mask><g stroke-linecap="round"><g transform="translate(537.3571428571427 2123.7619047619046) rotate(0 104.89965356737366 39.577350698411465)"><path d="M-0.05 1.09 C34.82 14.18, 174.65 65.08, 209.85 78.07" stroke="#1e1e1e" stroke-width="4.5" fill="none" stroke-dasharray="8 12"></path></g><g transform="translate(537.3571428571427 2123.7619047619046) rotate(0 104.89965356737366 39.577350698411465)"><path d="M181.66 77.75 C190.51 79.94, 202.58 76.87, 208.09 79.21" stroke="#1e1e1e" stroke-width="4.5" fill="none"></path></g><g transform="translate(537.3571428571427 2123.7619047619046) rotate(0 104.89965356737366 39.577350698411465)"><path d="M188.72 58.48 C195.01 67.45, 204.6 71.15, 208.09 79.21" stroke="#1e1e1e" stroke-width="4.5" fill="none"></path></g></g><mask></mask><g stroke-linecap="round"><g transform="translate(1641.3571428571427 2429.7619047619046) rotate(0 -77.08819748312226 37.21929220110178)"><path d="M-0.83 -0.21 C-26.38 12.15, -127.79 62.43, -153.34 74.65" stroke="#1e1e1e" stroke-width="4.5" fill="none" stroke-dasharray="8 12"></path></g><g transform="translate(1641.3571428571427 2429.7619047619046) rotate(0 -77.08819748312226 37.21929220110178)"><path d="M-132.87 54.16 C-137.45 59.01, -146.14 67.23, -152.03 75.75" stroke="#1e1e1e" stroke-width="4.5" fill="none"></path></g><g transform="translate(1641.3571428571427 2429.7619047619046) rotate(0 -77.08819748312226 37.21929220110178)"><path d="M-123.86 72.6 C-131.17 71.98, -142.51 74.77, -152.03 75.75" stroke="#1e1e1e" stroke-width="4.5" fill="none"></path></g></g><mask></mask><g stroke-linecap="round"><g transform="translate(1771.3571428571431 2441.761904761904) rotate(0 38.271087776124205 37.67804130464799)"><path d="M0.47 -0.11 C13.28 12.52, 63.52 62.58, 76.07 75.47" stroke="#1e1e1e" stroke-width="4.5" fill="none" stroke-dasharray="8 12"></path></g><g transform="translate(1771.3571428571431 2441.761904761904) rotate(0 38.271087776124205 37.67804130464799)"><path d="M48.76 62.79 C54.38 65.21, 63.61 69.94, 76.6 74.63" stroke="#1e1e1e" stroke-width="4.5" fill="none"></path></g><g transform="translate(1771.3571428571431 2441.761904761904) rotate(0 38.271087776124205 37.67804130464799)"><path d="M63.33 48.35 C65.5 54.21, 71.3 62.33, 76.6 74.63" stroke="#1e1e1e" stroke-width="4.5" fill="none"></path></g></g><mask></mask><g stroke-linecap="round"><g transform="translate(1419.3571428571427 2723.7619047619046) rotate(0 0.10915159454361856 40.56155494600523)"><path d="M0.55 1.14 C0.64 14.51, -0.31 66.76, -0.34 79.98" stroke="#1e1e1e" stroke-width="4.5" fill="none" stroke-dasharray="8 12"></path></g><g transform="translate(1419.3571428571427 2723.7619047619046) rotate(0 0.10915159454361856 40.56155494600523)"><path d="M-8.4 51.12 C-8.11 58.72, -5.03 62.71, -1.49 81.52" stroke="#1e1e1e" stroke-width="4.5" fill="none"></path></g><g transform="translate(1419.3571428571427 2723.7619047619046) rotate(0 0.10915159454361856 40.56155494600523)"><path d="M12.12 51.34 C7.73 58.99, 6.13 62.93, -1.49 81.52" stroke="#1e1e1e" stroke-width="4.5" fill="none"></path></g></g><mask></mask><g stroke-linecap="round"><g transform="translate(1869.3571428571431 2725.7619047619046) rotate(0 0.18247593844853327 36.73700498491513)"><path d="M0.01 0.52 C0.07 12.65, 0.46 60.69, 0.33 72.95" stroke="#1e1e1e" stroke-width="4.5" fill="none" stroke-dasharray="8 12"></path></g><g transform="translate(1869.3571428571431 2725.7619047619046) rotate(0 0.18247593844853327 36.73700498491513)"><path d="M-9.06 45.31 C-8.58 51.83, -3.66 61.66, 0.5 72.92" stroke="#1e1e1e" stroke-width="4.5" fill="none"></path></g><g transform="translate(1869.3571428571431 2725.7619047619046) rotate(0 0.18247593844853327 36.73700498491513)"><path d="M11.46 45.31 C5.83 51.83, 4.65 61.67, 0.5 72.92" stroke="#1e1e1e" stroke-width="4.5" fill="none"></path></g></g><mask></mask><g stroke-linecap="round"><g transform="translate(2213.357142857143 2471.7619047619046) rotate(0 35.50272773355255 25.77042631059885)"><path d="M-0.37 0.63 C11.45 9.25, 59.13 42.3, 71.38 50.91" stroke="#1e1e1e" stroke-width="4.5" fill="none" stroke-dasharray="8 12"></path></g><g transform="translate(2213.357142857143 2471.7619047619046) rotate(0 35.50272773355255 25.77042631059885)"><path d="M43.44 42.16 C50.26 47.74, 62.28 47.5, 71.71 49.72" stroke="#1e1e1e" stroke-width="4.5" fill="none"></path></g><g transform="translate(2213.357142857143 2471.7619047619046) rotate(0 35.50272773355255 25.77042631059885)"><path d="M55.18 25.33 C57.95 36.53, 66.02 41.95, 71.71 49.72" stroke="#1e1e1e" stroke-width="4.5" fill="none"></path></g></g><mask></mask></svg>