<svg version="1.1" xmlns="http://www.w3.org/2000/svg" viewBox="0 0 1870.0655792034145 1160.3446984225398" width="1870.0655792034145" height="1160.3446984225398">
  <!-- svg-source:excalidraw -->
  
  <defs>
    <style class="style-fonts">
      @font-face {
        font-family: "Virgil";
        src: url("https://excalidraw.com/Virgil.woff2");
      }
      @font-face {
        font-family: "Cascadia";
        src: url("https://excalidraw.com/Cascadia.woff2");
      }
    </style>
  </defs>
  <rect x="0" y="0" width="1870.0655792034145" height="1160.3446984225398" fill="#ffffff"></rect><g stroke-linecap="round" transform="translate(25.532716953940962 509.9073444100078) rotate(0 79.6405203676334 70.98394158822065)"><path d="M1.34 -0.47 C53.5 -2.48, 107.7 -1.86, 160.22 -0.83 M-0.88 -0.03 C35.12 -1.93, 69.33 -2.23, 159.64 0.28 M158.24 0.19 C157.88 35.67, 158.31 70.4, 159.25 142.96 M158.9 -0.69 C160.31 49.07, 159.36 99.39, 158.82 142.69 M159.34 140.23 C97.32 141.8, 33.68 143.66, 0.14 140.16 M159.3 141.71 C126.55 142.71, 93.88 143.34, -0.37 142.79 M-0.58 143.9 C1.22 114.02, 0.73 83.68, -0.44 -1.13 M-0.4 142.55 C0.43 87.51, 0.43 31.47, -0.31 -0.26" stroke="#000000" stroke-width="4" fill="none"></path></g><g stroke-linecap="round" transform="translate(45.154348356173614 520.2952565571577) rotate(0 58.8647401029701 47.89974251719587)"><path d="M23.95 0 M23.95 0 C40.43 -0.78, 56.94 -0.37, 93.78 0 M23.95 0 C43.11 1.02, 64.85 -0.59, 93.78 0 M93.78 0 C109.68 0.23, 116.95 6.63, 117.73 23.95 M93.78 0 C108.16 0.82, 118.37 6.83, 117.73 23.95 M117.73 23.95 C117.66 37.91, 117.64 54.12, 117.73 71.85 M117.73 23.95 C118.2 36.91, 118.09 49.42, 117.73 71.85 M117.73 71.85 C116.35 89.77, 109.24 95.84, 93.78 95.8 M117.73 71.85 C119.43 86.75, 111.42 97.89, 93.78 95.8 M93.78 95.8 C75.92 96.15, 60.02 94.8, 23.95 95.8 M93.78 95.8 C70.74 94.31, 50.01 95.19, 23.95 95.8 M23.95 95.8 C7.47 95.45, 0.23 87.24, 0 71.85 M23.95 95.8 C9.69 94.94, 1.89 85.58, 0 71.85 M0 71.85 C1.64 57.64, 0.56 41.3, 0 23.95 M0 71.85 C0.97 58.51, 0.87 46.04, 0 23.95 M0 23.95 C1.17 7.04, 8.93 -0.93, 23.95 0 M0 23.95 C-1.46 7.27, 7.39 -1.19, 23.95 0" stroke="#000000" stroke-width="4" fill="none"></path></g><g stroke-linecap="round"><g transform="translate(47.629170457417786 634.5620700276236) rotate(0 56.14751411086516 0.1499154241691194)"><path d="M-0.28 -0.18 C18.28 -0.31, 93.7 -0.07, 112.57 0.06 M1.77 -1.33 C20.03 -1.31, 92.96 1.65, 111.34 1.63" stroke="#000000" stroke-width="4" fill="none"></path></g></g><mask></mask><g transform="translate(18.670921363076104 454.59186911186845) rotate(0 92 21)"><text x="0" y="33" font-family="Helvetica, Segoe UI Emoji" font-size="36px" fill="#000000" text-anchor="start" style="white-space: pre;" direction="ltr">Client PC 1</text></g><g stroke-linecap="round" transform="translate(1126.258066819377 65.31547529813929) rotate(0 79.64052036763337 70.98394158822066)"><path d="M1.12 -0.35 C45.36 -0.66, 90.89 1.68, 158.84 -0.35 M0.33 -0.01 C40 0.72, 80.65 -0.34, 159.13 0.06 M159.59 -1.93 C159.87 33.82, 162.25 71.85, 157.6 141.02 M158.59 0.87 C157.58 49.05, 158.16 96.48, 159.01 141.92 M157.89 141.72 C127.09 142.63, 94.92 142.74, -1.52 141.04 M159.01 141.57 C102.72 140.85, 48.37 140.09, 0.33 141.91 M0.68 140.24 C0.67 99.92, -1.05 57.41, -0.37 1.99 M0.71 141.52 C-0.34 113.71, 0.94 83.56, 0.21 -0.89" stroke="#000000" stroke-width="4" fill="none"></path></g><g stroke-linecap="round" transform="translate(1145.8796982216097 75.70338744528931) rotate(0 58.86474010297013 47.899742517195875)"><path d="M23.95 0 M23.95 0 C43.44 -1.2, 62.52 -1.85, 93.78 0 M23.95 0 C48.73 -0.23, 74.03 0.45, 93.78 0 M93.78 0 C109.72 -1.05, 117.9 7.2, 117.73 23.95 M93.78 0 C107.51 -0.35, 117.86 6.83, 117.73 23.95 M117.73 23.95 C115.66 41.94, 115.9 63, 117.73 71.85 M117.73 23.95 C117.72 39.46, 116.41 56.11, 117.73 71.85 M117.73 71.85 C119.48 87, 111.57 96.15, 93.78 95.8 M117.73 71.85 C118.16 87.2, 109.63 93.53, 93.78 95.8 M93.78 95.8 C72.31 95.21, 51.24 95.13, 23.95 95.8 M93.78 95.8 C73.24 95.33, 50.79 95.21, 23.95 95.8 M23.95 95.8 C7.19 93.85, 0.75 88.35, 0 71.85 M23.95 95.8 C7.1 96.56, -0.14 87.9, 0 71.85 M0 71.85 C-1.62 55.82, 1.19 36.41, 0 23.95 M0 71.85 C-0.88 53.05, -0.64 35.7, 0 23.95 M0 23.95 C-0.89 6.26, 9.24 0.83, 23.95 0 M0 23.95 C-1.47 8.48, 5.93 0.12, 23.95 0" stroke="#000000" stroke-width="4" fill="none"></path></g><g stroke-linecap="round"><g transform="translate(1148.354520322854 189.97020091575519) rotate(0 56.51089857916918 -0.7984513354080889)"><path d="M-0.21 -0.49 C18.59 -0.74, 93.43 -0.91, 112.44 -0.87 M-1.78 -1.79 C17.44 -1.98, 95.6 -0.25, 114.8 0.21" stroke="#000000" stroke-width="4" fill="none"></path></g></g><mask></mask><g transform="translate(1119.3962712285122 10) rotate(0 69 21)"><text x="0" y="33" font-family="Helvetica, Segoe UI Emoji" font-size="36px" fill="#000000" text-anchor="start" style="white-space: pre;" direction="ltr">Server 1</text></g><g stroke-linecap="round" transform="translate(11.769749673253841 730.3792015770716) rotate(0 79.6405203676334 70.98394158822065)"><path d="M-0.38 -1.44 C30.96 -1.76, 63.33 1.49, 159.08 -0.09 M0.93 0.54 C40.99 -0.47, 82.07 -1.78, 158.89 0.35 M158.2 1.76 C159.56 57.37, 158.78 114.28, 158.48 143.35 M159.79 -0.47 C159.48 47.19, 159.21 94.28, 158.96 142.48 M161.03 141 C104.87 141.32, 48.51 141.46, 0.52 140.54 M159.44 142.51 C116.9 143.26, 71.75 141.87, 0.08 142.71 M-0.58 140.66 C2.35 102.52, 0.33 65.02, -0.26 -1.24 M0.19 141.98 C0.81 88.99, 1.41 35.81, -0.24 0.06" stroke="#000000" stroke-width="4" fill="none"></path></g><g stroke-linecap="round" transform="translate(31.391381075486493 740.7671137242216) rotate(0 58.8647401029701 47.899742517195875)"><path d="M23.95 0 M23.95 0 C49.93 -0.85, 77.02 -0.42, 93.78 0 M23.95 0 C49.7 0.77, 77.11 0.96, 93.78 0 M93.78 0 C110.83 -0.42, 119.45 7.32, 117.73 23.95 M93.78 0 C108.7 -0.89, 118.52 10.25, 117.73 23.95 M117.73 23.95 C119.06 36.47, 118.06 47.03, 117.73 71.85 M117.73 23.95 C117.89 41.15, 118.15 58.24, 117.73 71.85 M117.73 71.85 C116.8 87.36, 109.02 94.79, 93.78 95.8 M117.73 71.85 C115.83 87.07, 110.92 96.92, 93.78 95.8 M93.78 95.8 C68.33 97.57, 44.26 96.79, 23.95 95.8 M93.78 95.8 C74.02 95.02, 55.05 95.46, 23.95 95.8 M23.95 95.8 C9.07 97.57, 1.89 85.84, 0 71.85 M23.95 95.8 C6.96 95.98, 1.7 87.17, 0 71.85 M0 71.85 C-0.95 61.61, -0.49 47.77, 0 23.95 M0 71.85 C0.77 56.36, 0.89 42.02, 0 23.95 M0 23.95 C0.03 8.23, 7.26 1.47, 23.95 0 M0 23.95 C-2.12 7.43, 8.13 2.07, 23.95 0" stroke="#000000" stroke-width="4" fill="none"></path></g><g stroke-linecap="round"><g transform="translate(33.866203176730664 855.0339271946875) rotate(0 56.67860097472659 0.5752644603956583)"><path d="M-0.86 -0.59 C17.81 -0.61, 92.91 -0.41, 112.06 -0.33 M0.89 1.71 C19.92 1.89, 95.41 1.13, 114.22 1.03" stroke="#000000" stroke-width="4" fill="none"></path></g></g><mask></mask><g transform="translate(10 675.0637262789323) rotate(0 92 21)"><text x="0" y="33" font-family="Helvetica, Segoe UI Emoji" font-size="36px" fill="#000000" text-anchor="start" style="white-space: pre;" direction="ltr">Client PC 2</text></g><g stroke-linecap="round" transform="translate(244.12302573178454 1001.7715179202455) rotate(0 79.6405203676334 70.98394158822066)"><path d="M1.47 -1.85 C47.55 0.7, 97.85 -1.29, 158.12 -0.64 M-0.11 -0.33 C44.01 1.87, 88.71 1.15, 158.82 0.34 M158.94 -1.68 C158.4 54.44, 158.84 104.96, 159.94 143.3 M159.58 0.91 C158.34 33.19, 157.94 67.23, 158.78 141.55 M159.23 142.8 C114.78 140.84, 69.34 143.17, -1.47 143.68 M159.17 142.57 C116.39 141.11, 71.73 141.22, 0.03 142 M-1.54 143.46 C-3.29 83.66, -1.49 28.22, 1.55 1.73 M0.7 141.61 C-0.12 109.52, 0.65 78.46, 0.76 0.81" stroke="#000000" stroke-width="4" fill="none"></path></g><g stroke-linecap="round" transform="translate(263.74465713401713 1012.1594300673955) rotate(0 58.864740102970075 47.899742517195875)"><path d="M23.95 0 M23.95 0 C43.93 -0.99, 67.73 1.29, 93.78 0 M23.95 0 C38.18 1.2, 52.12 0.11, 93.78 0 M93.78 0 C109.09 -0.81, 119.22 7.76, 117.73 23.95 M93.78 0 C109.8 -1.05, 118.52 9.6, 117.73 23.95 M117.73 23.95 C115.69 35.72, 119.24 48.11, 117.73 71.85 M117.73 23.95 C117.28 37.29, 118.83 52.12, 117.73 71.85 M117.73 71.85 C119.55 87.63, 108.08 94.81, 93.78 95.8 M117.73 71.85 C115.83 86.67, 108.79 95.29, 93.78 95.8 M93.78 95.8 C74.53 95.56, 52.35 94.4, 23.95 95.8 M93.78 95.8 C68.87 95.44, 43.76 96.29, 23.95 95.8 M23.95 95.8 C9.18 97.19, 0.62 87.04, 0 71.85 M23.95 95.8 C8.96 95.88, 0.07 90.05, 0 71.85 M0 71.85 C1.77 51.07, -1.65 34.05, 0 23.95 M0 71.85 C-1.11 59.49, -0.89 48.5, 0 23.95 M0 23.95 C-0.72 6.79, 7.21 0.33, 23.95 0 M0 23.95 C1.42 9.73, 9.85 1.56, 23.95 0" stroke="#000000" stroke-width="4" fill="none"></path></g><g stroke-linecap="round"><g transform="translate(266.2194792352613 1126.4262435378614) rotate(0 56.0402045373489 -0.23602114331299617)"><path d="M-1.11 -0.29 C17.83 -0.25, 94.34 1.15, 113.19 1.08 M0.51 -1.48 C19.34 -1.84, 93.31 -0.76, 112.28 -0.47" stroke="#000000" stroke-width="4" fill="none"></path></g></g><mask></mask><g transform="translate(237.26123014091968 946.4560426221062) rotate(0 91.99999999999997 21)"><text x="0" y="33" font-family="Helvetica, Segoe UI Emoji" font-size="36px" fill="#000000" text-anchor="start" style="white-space: pre;" direction="ltr">Client PC 3</text></g><g stroke-linecap="round" transform="translate(464.5946886522178 1008.3768152460983) rotate(0 79.64052036763337 70.98394158822066)"><path d="M-0.45 -1.07 C35.45 0.43, 73.96 1.55, 160.65 0.89 M0.71 0.55 C62.07 1.24, 125.84 0.58, 158.39 -0.36 M158.99 1.41 C160.54 57.68, 160.67 111.24, 159.39 143.66 M159.37 0.4 C158.6 49.66, 158.36 99.27, 160.13 142.66 M158.07 140.97 C118.09 142.2, 80.66 141.21, -1.87 141.62 M159.96 141.78 C99.91 142.63, 40.19 142.41, -0.85 142.04 M1.65 143.83 C-2.33 108.01, -0.06 76.91, -1.3 -1.84 M-0.39 141.7 C-1.32 98.64, -1.55 58.14, 0.9 0.2" stroke="#000000" stroke-width="4" fill="none"></path></g><g stroke-linecap="round" transform="translate(484.2163200544505 1018.7647273932483) rotate(0 58.864740102970075 47.899742517195875)"><path d="M23.95 0 M23.95 0 C39.33 -0.64, 56.01 1.63, 93.78 0 M23.95 0 C46.82 -0.2, 67.18 0.4, 93.78 0 M93.78 0 C110.84 -1.25, 118.16 8.89, 117.73 23.95 M93.78 0 C108.73 -2.04, 116.91 10.2, 117.73 23.95 M117.73 23.95 C119 38.81, 118.98 52.21, 117.73 71.85 M117.73 23.95 C118.25 34.78, 118.54 46.35, 117.73 71.85 M117.73 71.85 C118.53 87.37, 109.84 94.87, 93.78 95.8 M117.73 71.85 C117.82 89.76, 111.33 94.67, 93.78 95.8 M93.78 95.8 C67.14 94.14, 43.87 96.67, 23.95 95.8 M93.78 95.8 C72.23 95.14, 49.6 96.35, 23.95 95.8 M23.95 95.8 C7.61 96.53, -0.03 88.58, 0 71.85 M23.95 95.8 C7.43 93.85, 0.16 86.19, 0 71.85 M0 71.85 C2.22 54.05, -1.06 40.37, 0 23.95 M0 71.85 C0.3 57.87, 0.65 42.61, 0 23.95 M0 23.95 C-0.53 6.6, 6.02 -1.85, 23.95 0 M0 23.95 C1.98 10.04, 8.43 1.93, 23.95 0" stroke="#000000" stroke-width="4" fill="none"></path></g><g stroke-linecap="round"><g transform="translate(486.69114215569465 1133.0315408637143) rotate(0 55.98381888015763 -0.4474328359162314)"><path d="M-0.64 -0.48 C18.29 -0.28, 93.62 0.67, 112.61 0.88 M1.22 -1.77 C20.03 -1.88, 92.83 -0.89, 111.4 -0.77" stroke="#000000" stroke-width="4" fill="none"></path></g></g><mask></mask><g transform="translate(457.73289306135297 953.061339947959) rotate(0 92 21)"><text x="0" y="33" font-family="Helvetica, Segoe UI Emoji" font-size="36px" fill="#000000" text-anchor="start" style="white-space: pre;" direction="ltr">Client PC 4</text></g><g stroke-linecap="round" transform="translate(347.1168820481486 652.9352690480695) rotate(0 179.07072388664506 42.43382389488636)"><path d="M21.22 0 M21.22 0 C92.37 0.67, 161.26 1.35, 336.92 0 M21.22 0 C84.79 1.9, 148.98 2.14, 336.92 0 M336.92 0 C350.38 1.09, 357.36 8.99, 358.14 21.22 M336.92 0 C352 -1.85, 356.64 5.94, 358.14 21.22 M358.14 21.22 C358.29 34.27, 359.05 47.91, 358.14 63.65 M358.14 21.22 C357.7 34.99, 358.48 49.14, 358.14 63.65 M358.14 63.65 C356.46 75.9, 352 85.68, 336.92 84.87 M358.14 63.65 C357.45 79.55, 351.45 84.45, 336.92 84.87 M336.92 84.87 C250.66 82.73, 160.86 83.13, 21.22 84.87 M336.92 84.87 C230.94 86.27, 125.04 86.76, 21.22 84.87 M21.22 84.87 C6.86 83.77, 1.82 76.57, 0 63.65 M21.22 84.87 C6.56 86.01, -1.94 79.01, 0 63.65 M0 63.65 C-0.59 49.85, -2.18 32.27, 0 21.22 M0 63.65 C0.23 49.51, -0.67 36.48, 0 21.22 M0 21.22 C0.85 8.92, 7.64 0.52, 21.22 0 M0 21.22 C-0.3 8.87, 8.44 2.15, 21.22 0" stroke="#000000" stroke-width="4" fill="none"></path></g><g transform="translate(369.7864726543749 607.7775505315775) rotate(0 125 21)"><text x="125" y="33" font-family="Helvetica, Segoe UI Emoji" font-size="36px" fill="#000000" text-anchor="middle" style="white-space: pre;" direction="ltr">Network Switch</text></g><g stroke-linecap="round" transform="translate(897.8872130116881 350.53804691055313) rotate(0 179.07072388664506 42.43382389488636)"><path d="M21.22 0 M21.22 0 C129.35 -1.92, 236.83 -0.24, 336.92 0 M21.22 0 C114.35 1.41, 207.92 1.65, 336.92 0 M336.92 0 C350.44 1.05, 357.11 8.47, 358.14 21.22 M336.92 0 C349.14 -1.52, 357.36 6.29, 358.14 21.22 M358.14 21.22 C358.51 33.64, 357.95 42.43, 358.14 63.65 M358.14 21.22 C358.33 31.04, 357.98 39.02, 358.14 63.65 M358.14 63.65 C359.6 78.32, 349.22 85.31, 336.92 84.87 M358.14 63.65 C359.03 75.96, 351.73 83.25, 336.92 84.87 M336.92 84.87 C245.96 82.44, 155.68 82.42, 21.22 84.87 M336.92 84.87 C244.39 83.51, 152.73 83.36, 21.22 84.87 M21.22 84.87 C7.2 83.54, 0.49 77.32, 0 63.65 M21.22 84.87 C5.22 85.38, -0.3 75.63, 0 63.65 M0 63.65 C0.84 47.32, -0.13 32.15, 0 21.22 M0 63.65 C0.9 48.58, 0.24 34.22, 0 21.22 M0 21.22 C-1.82 5.59, 8.66 -1.04, 21.22 0 M0 21.22 C1.58 7.85, 6.29 -0.48, 21.22 0" stroke="#000000" stroke-width="4" fill="none"></path></g><g transform="translate(920.5568036179143 305.38032839406117) rotate(0 125 21)"><text x="125" y="33" font-family="Helvetica, Segoe UI Emoji" font-size="36px" fill="#000000" text-anchor="middle" style="white-space: pre;" direction="ltr">Network Switch</text></g><g stroke-linecap="round" transform="translate(805.4021801129211 652.9352042991925) rotate(0 109.47927859858214 43.28248742300872)"><path d="M21.64 0 M21.64 0 C85.64 -0.84, 145.84 -0.86, 197.32 0 M21.64 0 C67.62 1.46, 113.96 1.39, 197.32 0 M197.32 0 C212.8 1.02, 218.91 5.39, 218.96 21.64 M197.32 0 C213.3 -0.72, 218 5.31, 218.96 21.64 M218.96 21.64 C218.17 31.16, 219.44 43.69, 218.96 64.92 M218.96 21.64 C219.23 37.06, 218.31 51.95, 218.96 64.92 M218.96 64.92 C217.13 78.03, 212.16 84.7, 197.32 86.56 M218.96 64.92 C219.48 79.82, 213.07 87.82, 197.32 86.56 M197.32 86.56 C131.63 88.29, 62.35 88.28, 21.64 86.56 M197.32 86.56 C161.08 87.56, 124.7 86.19, 21.64 86.56 M21.64 86.56 C5.31 84.7, -0.55 80, 0 64.92 M21.64 86.56 C5.51 86.25, 2.21 77.13, 0 64.92 M0 64.92 C-0.18 50.36, 2.12 35.51, 0 21.64 M0 64.92 C-0.3 50.36, 0.62 38.61, 0 21.64 M0 21.64 C0.29 8.12, 6.26 0.59, 21.64 0 M0 21.64 C-1.88 6.36, 6.48 0.03, 21.64 0" stroke="#000000" stroke-width="4" fill="none"></path></g><g transform="translate(835.269827902694 607.5801911008945) rotate(0 55 21)"><text x="55" y="33" font-family="Helvetica, Segoe UI Emoji" font-size="36px" fill="#000000" text-anchor="middle" style="white-space: pre;" direction="ltr">Router</text></g><g stroke-linecap="round" transform="translate(1364.7903983547599 354.84692580082583) rotate(0 109.47927859858214 43.28248742300872)"><path d="M21.64 0 M21.64 0 C87.29 -0.37, 150.28 -0.11, 197.32 0 M21.64 0 C65.87 0.69, 108.42 0.11, 197.32 0 M197.32 0 C213.66 -1.32, 217.55 9.11, 218.96 21.64 M197.32 0 C213.07 0.46, 221.19 5.28, 218.96 21.64 M218.96 21.64 C219.07 32.57, 220.51 41.3, 218.96 64.92 M218.96 21.64 C218.14 32.35, 219.42 43.41, 218.96 64.92 M218.96 64.92 C220.83 78.95, 210.03 86.64, 197.32 86.56 M218.96 64.92 C221.13 78.42, 213.66 86.05, 197.32 86.56 M197.32 86.56 C150.48 87.41, 107.59 87.18, 21.64 86.56 M197.32 86.56 C152.9 87.55, 107.98 86.54, 21.64 86.56 M21.64 86.56 C8.02 86.63, 0.91 80.26, 0 64.92 M21.64 86.56 C5.74 87.6, 1.26 79.23, 0 64.92 M0 64.92 C0.25 55.04, 0.93 41.42, 0 21.64 M0 64.92 C-0.62 49, -0.12 34.05, 0 21.64 M0 21.64 C-0.99 7.21, 8.02 0.37, 21.64 0 M0 21.64 C2.07 7, 7.18 -2.1, 21.64 0" stroke="#000000" stroke-width="4" fill="none"></path></g><g transform="translate(1394.6580461445328 309.4919126025278) rotate(0 55 21)"><text x="55" y="33" font-family="Helvetica, Segoe UI Emoji" font-size="36px" fill="#000000" text-anchor="middle" style="white-space: pre;" direction="ltr">Router</text></g><g stroke-linecap="round"><g transform="translate(343.72209843790546 681.7902174974906) rotate(0 -78.66462804424111 -46.55290757345537)"><path d="M-0.55 0.11 C-27 -15.52, -131.68 -77.72, -158.37 -93.21 M1.36 -0.88 C-25.17 -16.44, -132.07 -77.08, -158.69 -92.25" stroke="#000000" stroke-width="4" fill="none"></path></g></g><mask></mask><g stroke-linecap="round"><g transform="translate(172.28941105323855 800.6049244031724) rotate(0 85.77763071520263 -49.21124506836412)"><path d="M-0.94 -0.99 C27.98 -17.74, 143.72 -83.33, 172.49 -99.53 M0.77 1.1 C29.69 -15.57, 143.65 -81.37, 172.01 -98.23" stroke="#000000" stroke-width="4" fill="none"></path></g></g><mask></mask><g stroke-linecap="round"><g transform="translate(338.63005252029456 953.3666904247634) rotate(0 29.266832425775817 -108.20229079459803)"><path d="M-0.6 0.91 C8.84 -34.9, 47.36 -179.43, 57.01 -215.79 M1.28 0.34 C11.05 -35.69, 49.39 -181.24, 59.14 -217.31" stroke="#000000" stroke-width="4" fill="none"></path></g></g><mask></mask><g stroke-linecap="round"><g transform="translate(545.7071260771152 953.3666904247634) rotate(0 0.1734444149685146 -107.50819610037891)"><path d="M1.16 -0.84 C1 -36.62, 0.47 -178.87, 0.11 -214.69 M0.3 1.33 C-0.09 -34.78, -0.96 -180.37, -0.79 -216.35" stroke="#000000" stroke-width="4" fill="none"></path></g></g><mask></mask><g stroke-linecap="round"><g transform="translate(705.2583298214388 695.3690281940789) rotate(0 50.673930298003825 -0.41696197766292187)"><path d="M-0.53 0.14 C15.93 0.31, 82.85 0.61, 99.51 0.53 M1.39 -0.83 C18.19 -0.99, 85.13 -1.58, 101.88 -1.31" stroke="#000000" stroke-width="4" fill="none"></path></g></g><mask></mask><g stroke-linecap="round" transform="translate(1105.8336014896158 566.3701647042982) rotate(0 236.78075028324133 128.99883111534223)"><path d="M235.43 0.13 C255.63 -2.02, 277.5 2.24, 297.99 5.16 C318.47 8.08, 339.94 11.93, 358.33 17.63 C376.72 23.32, 393.85 30.7, 408.34 39.34 C422.82 47.98, 435.38 59.18, 445.25 69.47 C455.13 79.77, 462.97 90.06, 467.59 101.09 C472.21 112.13, 474.25 123.91, 472.95 135.66 C471.66 147.42, 466.78 160.41, 459.81 171.61 C452.83 182.81, 443.1 193.56, 431.11 202.89 C419.12 212.21, 404.28 220.31, 387.87 227.54 C371.45 234.78, 352.13 241.38, 332.61 246.28 C313.1 251.18, 291.88 255.15, 270.79 256.94 C249.7 258.73, 227.26 258.49, 206.07 257.01 C184.88 255.53, 163.07 252.55, 143.63 248.06 C124.19 243.56, 105.78 237.44, 89.43 230.06 C73.08 222.69, 57.87 213.3, 45.52 203.8 C33.16 194.3, 22.73 183.87, 15.3 173.06 C7.88 162.25, 2.7 150.45, 0.98 138.95 C-0.75 127.44, 0.88 115.42, 4.95 104.01 C9.03 92.6, 15.91 80.74, 25.42 70.49 C34.92 60.23, 47.65 50.87, 61.99 42.46 C76.32 34.06, 93.18 26.2, 111.43 20.07 C129.69 13.94, 149.94 9, 171.52 5.69 C193.1 2.38, 228.34 0.58, 240.91 0.23 C253.47 -0.12, 246.97 1.51, 246.91 3.6 M160.41 8.02 C178.12 2.41, 201.14 2.5, 222.19 1.41 C243.24 0.32, 266.01 -0.65, 286.71 1.48 C307.41 3.61, 327.49 8.42, 346.39 14.19 C365.29 19.97, 384.66 28, 400.1 36.13 C415.54 44.26, 428.13 53.15, 439.06 62.97 C449.98 72.79, 459.96 83.72, 465.66 95.05 C471.37 106.38, 473.4 119.44, 473.29 130.96 C473.18 142.48, 470.7 153.05, 465.01 164.16 C459.32 175.26, 450.67 187.39, 439.15 197.58 C427.62 207.77, 411.79 217.54, 395.85 225.29 C379.9 233.05, 362.12 238.96, 343.46 244.1 C324.8 249.23, 304.65 254.08, 283.88 256.11 C263.12 258.15, 240.14 257.33, 218.85 256.33 C197.56 255.33, 176.31 253.73, 156.13 250.11 C135.94 246.49, 115.07 241.27, 97.75 234.63 C80.44 227.99, 65.22 219.38, 52.23 210.28 C39.23 201.17, 28.21 190.78, 19.79 180.01 C11.36 169.25, 4.38 157.3, 1.68 145.66 C-1.02 134.03, 0.36 121.64, 3.58 110.19 C6.8 98.73, 12.46 87.65, 21.03 76.94 C29.6 66.23, 41.74 55.07, 55.01 45.9 C68.27 36.74, 83.15 28.25, 100.61 21.95 C118.08 15.65, 149.98 10.41, 159.79 8.11 C169.6 5.82, 158.08 6.22, 159.47 8.19" stroke="#000000" stroke-width="4" fill="none"></path></g><g transform="translate(1280.6143517728572 674.3689958196404) rotate(0 62 21)"><text x="62" y="33" font-family="Helvetica, Segoe UI Emoji" font-size="36px" fill="#000000" text-anchor="middle" style="white-space: pre;" direction="ltr">Internet</text></g><g stroke-linecap="round"><g transform="translate(1024.360607812332 697.0663552503236) rotate(0 39.660909882998 0.1872720878105607)"><path d="M0.85 0.15 C14.17 0.2, 66.18 -0.26, 79.49 -0.23 M-0.17 -0.81 C13.01 -0.53, 64.96 0.75, 78.39 1.18" stroke="#000000" stroke-width="4" fill="none"></path></g></g><mask></mask><g stroke-linecap="round"><g transform="translate(1372.5569240255954 564.3905155627942) rotate(0 36.58798202897162 -63.18935396740295)"><path d="M0.96 -0.51 C13.31 -21.65, 61.46 -105.13, 73.17 -125.87 M0.01 -1.83 C12.36 -22.92, 60.48 -104.49, 72.74 -124.78" stroke="#000000" stroke-width="4" fill="none"></path></g></g><mask></mask><g stroke-linecap="round"><g transform="translate(1363.9392011198247 394.18794039962995) rotate(0 -52.332883775198866 0.4465238039474855)"><path d="M-0.34 -0.64 C-17.73 -0.46, -87.78 0.84, -105.46 0.91 M1.68 1.63 C-15.76 1.51, -88.74 -0.63, -106.35 -0.74" stroke="#000000" stroke-width="4" fill="none"></path></g></g><mask></mask><g stroke-linecap="round"><g transform="translate(1204.5086974026103 346.7897247415127) rotate(0 0.08688086894346725 -68.37673349694433)"><path d="M0.29 -0.47 C0.19 -23.22, -1.13 -113.57, -0.99 -136.28 M-1.02 -1.76 C-0.72 -24.38, 0.88 -112.66, 1.2 -135.04" stroke="#000000" stroke-width="4" fill="none"></path></g></g><mask></mask><g transform="translate(727.5519948011358 910.8214874440089) rotate(0 86.5 41.5)"><text x="86.5" y="32.5" font-family="Helvetica, Segoe UI Emoji" font-size="36px" fill="#e67700" text-anchor="middle" style="white-space: pre;" direction="ltr">Iside Local</text><text x="86.5" y="74" font-family="Helvetica, Segoe UI Emoji" font-size="36px" fill="#e67700" text-anchor="middle" style="white-space: pre;" direction="ltr">10.0.0.123</text></g><g transform="translate(677.719855831031 484.8499395239385) rotate(0 106 41.5)"><text x="106" y="32.5" font-family="Helvetica, Segoe UI Emoji" font-size="36px" fill="#e67700" text-anchor="middle" style="white-space: pre;" direction="ltr">Iside Global</text><text x="106" y="74" font-family="Helvetica, Segoe UI Emoji" font-size="36px" fill="#e67700" text-anchor="middle" style="white-space: pre;" direction="ltr">103.200.2.12</text></g><g transform="translate(1621.0655792034147 460.27945096180133) rotate(0 119.49999999999989 41.5)"><text x="119.5" y="32.5" font-family="Helvetica, Segoe UI Emoji" font-size="36px" fill="#d9480f" text-anchor="middle" style="white-space: pre;" direction="ltr">Outside Global</text><text x="119.5" y="74" font-family="Helvetica, Segoe UI Emoji" font-size="36px" fill="#d9480f" text-anchor="middle" style="white-space: pre;" direction="ltr">103.200.2.12</text></g><g transform="translate(1391.0485653953522 153.38376981605597) rotate(0 106 41.5)"><text x="106" y="32.5" font-family="Helvetica, Segoe UI Emoji" font-size="36px" fill="#d9480f" text-anchor="middle" style="white-space: pre;" direction="ltr">Ouside Local</text><text x="106" y="74" font-family="Helvetica, Segoe UI Emoji" font-size="36px" fill="#d9480f" text-anchor="middle" style="white-space: pre;" direction="ltr">10.10.10.321</text></g><g stroke-linecap="round"><g transform="translate(718.0231692444297 952.2889322690344) rotate(0 -85.06548867730652 -2.444892674763423)"><path d="M-1.13 1.19 C-29.51 0.22, -141.41 -5, -169.44 -6.08 M0.48 0.78 C-28.17 0, -142.16 -3.36, -170.62 -4.72" stroke="#e67700" stroke-width="4" fill="none"></path></g><g transform="translate(718.0231692444297 952.2889322690344) rotate(0 -85.06548867730652 -2.444892674763423)"><path d="M-140.07 -14.64 C-153.27 -11.25, -162.58 -8.81, -171.65 -4.29 M-142.59 -14.14 C-151 -10.39, -159.26 -8.85, -171.02 -5.48" stroke="#e67700" stroke-width="4" fill="none"></path></g><g transform="translate(718.0231692444297 952.2889322690344) rotate(0 -85.06548867730652 -2.444892674763423)"><path d="M-140.83 5.87 C-153.7 1.61, -162.74 -3.59, -171.65 -4.29 M-143.35 6.37 C-151.64 4.02, -159.67 -0.54, -171.02 -5.48" stroke="#e67700" stroke-width="4" fill="none"></path></g></g><mask></mask><g stroke-linecap="round"><g transform="translate(900.4782162064789 523.999658157212) rotate(0 83.1399471796243 79.15365810158211)"><path d="M0.7 0.7 C28.4 26.9, 138.95 132.1, 166.67 158.29 M-0.39 0.02 C27.07 26.4, 137.73 130.64, 165.51 156.59" stroke="#e67700" stroke-width="4" fill="none"></path></g><g transform="translate(900.4782162064789 523.999658157212) rotate(0 83.1399471796243 79.15365810158211)"><path d="M139.09 144.08 C148.78 148.54, 157.47 151.51, 164.26 156.59 M138.34 144.99 C145.7 148.59, 155.29 152.37, 165.13 157.58" stroke="#e67700" stroke-width="4" fill="none"></path></g><g transform="translate(900.4782162064789 523.999658157212) rotate(0 83.1399471796243 79.15365810158211)"><path d="M153.14 129.12 C158.17 138.76, 162.07 146.83, 164.26 156.59 M152.39 130.03 C155.49 138.22, 160.83 146.53, 165.13 157.58" stroke="#e67700" stroke-width="4" fill="none"></path></g></g><mask></mask><g stroke-linecap="round"><g transform="translate(1605.3309592296505 518.2786679890087) rotate(0 -93.57519891672484 -9.487717912394189)"><path d="M-1.19 -0.81 C-32.57 -3.77, -156.14 -15.63, -187.15 -18.59 M0.38 1.39 C-31.15 -1.86, -156.22 -16.71, -187.53 -20.36" stroke="#d9480f" stroke-width="4" fill="none"></path></g><g transform="translate(1605.3309592296505 518.2786679890087) rotate(0 -93.57519891672484 -9.487717912394189)"><path d="M-159.68 -25.48 C-168.71 -23.24, -180.08 -23.56, -188.86 -18.61 M-157.52 -26.72 C-165.06 -25.49, -173.48 -23.57, -187.55 -21.24" stroke="#d9480f" stroke-width="4" fill="none"></path></g><g transform="translate(1605.3309592296505 518.2786679890087) rotate(0 -93.57519891672484 -9.487717912394189)"><path d="M-162.08 -5.1 C-170.04 -10.82, -180.47 -19.11, -188.86 -18.61 M-159.92 -6.34 C-166.79 -10.19, -174.61 -13.34, -187.55 -21.24" stroke="#d9480f" stroke-width="4" fill="none"></path></g></g><mask></mask><g stroke-linecap="round"><g transform="translate(1376.781829832363 199.42177646750997) rotate(0 -85.57820927239277 47.65207465733354)"><path d="M-1.05 0.73 C-29.53 16.61, -142.37 79.76, -170.85 95.24 M0.59 0.07 C-28.04 15.64, -143.4 77.94, -171.75 93.71" stroke="#d9480f" stroke-width="4" fill="none"></path></g><g transform="translate(1376.781829832363 199.42177646750997) rotate(0 -85.57820927239277 47.65207465733354)"><path d="M-150.72 71.32 C-156.06 76.24, -164.78 85.83, -172.37 94.54 M-151.05 70.54 C-159.48 78.8, -165.97 87.97, -172.27 94.65" stroke="#d9480f" stroke-width="4" fill="none"></path></g><g transform="translate(1376.781829832363 199.42177646750997) rotate(0 -85.57820927239277 47.65207465733354)"><path d="M-140.88 89.33 C-149.19 88.71, -160.89 92.85, -172.37 94.54 M-141.2 88.54 C-153.1 90.2, -163.19 92.8, -172.27 94.65" stroke="#d9480f" stroke-width="4" fill="none"></path></g></g><mask></mask></svg>