<svg version="1.1" xmlns="http://www.w3.org/2000/svg" viewBox="0 0 1396.2587153368077 576.9103906393807" width="1396.2587153368077" height="576.9103906393807">
  <!-- svg-source:excalidraw -->
  
  <defs>
    <style class="style-fonts">
      @font-face {
        font-family: "Virgil";
        src: url("https://excalidraw.com/Virgil.woff2");
      }
      @font-face {
        font-family: "Cascadia";
        src: url("https://excalidraw.com/Cascadia.woff2");
      }
    </style>
  </defs>
  <rect x="0" y="0" width="1396.2587153368077" height="576.9103906393807" fill="#ffffff"></rect><g transform="translate(732.2587153368077 10) rotate(0 327 83)"><text x="0" y="33.5" font-family="Helvetica, Segoe UI Emoji" font-size="36px" fill="#000000" text-anchor="start" style="white-space: pre;" direction="ltr">SV = Standortverteiler</text><text x="0" y="75" font-family="Helvetica, Segoe UI Emoji" font-size="36px" fill="#000000" text-anchor="start" style="white-space: pre;" direction="ltr">GV = Geb채udeverteiler</text><text x="0" y="116.5" font-family="Helvetica, Segoe UI Emoji" font-size="36px" fill="#000000" text-anchor="start" style="white-space: pre;" direction="ltr">EV = Etagenverteiler</text><text x="0" y="158" font-family="Helvetica, Segoe UI Emoji" font-size="36px" fill="#000000" text-anchor="start" style="white-space: pre;" direction="ltr">TA = informations Technischer Anschluss</text></g><g transform="translate(338.73943213405346 116.19394357516222) rotate(0 27 21)"><text x="0" y="33" font-family="Helvetica, Segoe UI Emoji" font-size="36px" fill="#000000" text-anchor="start" style="white-space: pre;" direction="ltr">GV</text></g><g transform="translate(337.1542299663636 368.2064735364694) rotate(0 27 21)"><text x="0" y="33" font-family="Helvetica, Segoe UI Emoji" font-size="36px" fill="#000000" text-anchor="start" style="white-space: pre;" direction="ltr">GV</text></g><g transform="translate(20.849524147048328 226.33898447754183) rotate(0 25 21)"><text x="0" y="33" font-family="Helvetica, Segoe UI Emoji" font-size="36px" fill="#000000" text-anchor="start" style="white-space: pre;" direction="ltr">SV</text></g><g stroke-linecap="round" transform="translate(10 192.56599367220934) rotate(0 39.624612579802374 49.927005804314945)"><path d="M52.56 3.05 C59.29 5.49, 67.61 12.95, 72.03 20.32 C76.45 27.7, 78.8 38.32, 79.09 47.31 C79.38 56.3, 77.24 66.49, 73.77 74.24 C70.3 82, 64.45 89.66, 58.27 93.84 C52.1 98.02, 43.63 99.84, 36.71 99.33 C29.78 98.82, 22.25 96.17, 16.72 90.76 C11.19 85.35, 6.14 75.6, 3.51 66.88 C0.87 58.16, -0.55 47.05, 0.93 38.42 C2.41 29.8, 7.23 21.33, 12.39 15.13 C17.54 8.93, 24.73 2.88, 31.87 1.2 C39 -0.47, 50.98 4.35, 55.18 5.08 C59.38 5.8, 57.31 4.94, 57.05 5.56 M51.2 1.63 C57.77 3.26, 63.99 9.23, 68.4 15.75 C72.81 22.27, 76.25 32.03, 77.66 40.76 C79.07 49.49, 79.75 59.75, 76.88 68.13 C74.01 76.5, 66.52 85.46, 60.45 90.99 C54.38 96.53, 47.18 100.84, 40.46 101.33 C33.75 101.82, 26.2 99.04, 20.16 93.93 C14.12 88.82, 7.33 78.9, 4.24 70.66 C1.14 62.42, 0.76 53.47, 1.58 44.48 C2.4 35.49, 4.66 23.63, 9.17 16.74 C13.69 9.86, 21.91 5.7, 28.65 3.19 C35.39 0.69, 46.19 1.76, 49.59 1.69 C52.99 1.63, 49.19 2.21, 49.03 2.8" stroke="#000000" stroke-width="2" fill="none"></path></g><g transform="translate(555.882260701482 43.28468061327004) rotate(0 25 21)"><text x="0" y="33" font-family="Helvetica, Segoe UI Emoji" font-size="36px" fill="#000000" text-anchor="start" style="white-space: pre;" direction="ltr">EV</text></g><g transform="translate(603.9219129630364 97.66426484135684) rotate(0 25 21)"><text x="0" y="33" font-family="Helvetica, Segoe UI Emoji" font-size="36px" fill="#000000" text-anchor="start" style="white-space: pre;" direction="ltr">EV</text></g><g transform="translate(579.052302262699 164.72368277132807) rotate(0 25 21)"><text x="0" y="33" font-family="Helvetica, Segoe UI Emoji" font-size="36px" fill="#000000" text-anchor="start" style="white-space: pre;" direction="ltr">EV</text></g><g transform="translate(563.6925743965696 292.0125601924874) rotate(0 25 21)"><text x="0" y="33" font-family="Helvetica, Segoe UI Emoji" font-size="36px" fill="#000000" text-anchor="start" style="white-space: pre;" direction="ltr">EV</text></g><g transform="translate(583.202457230778 390.7717286486611) rotate(0 25 21)"><text x="0" y="33" font-family="Helvetica, Segoe UI Emoji" font-size="36px" fill="#000000" text-anchor="start" style="white-space: pre;" direction="ltr">EV</text></g><g transform="translate(814.234662166961 265.1825412913437) rotate(0 22.5 21)"><text x="0" y="33" font-family="Helvetica, Segoe UI Emoji" font-size="36px" fill="#000000" text-anchor="start" style="white-space: pre;" direction="ltr">TA</text></g><g transform="translate(807.8948208939696 382.47135825014243) rotate(0 22.5 21)"><text x="0" y="33" font-family="Helvetica, Segoe UI Emoji" font-size="36px" fill="#000000" text-anchor="start" style="white-space: pre;" direction="ltr">TA</text></g><g transform="translate(985.4130368815956 247.74767547881424) rotate(0 53.5 104)"><text x="0" y="32.6" font-family="Helvetica, Segoe UI Emoji" font-size="36px" fill="#000000" text-anchor="start" style="white-space: pre;" direction="ltr">Switch</text><text x="0" y="74.2" font-family="Helvetica, Segoe UI Emoji" font-size="36px" fill="#000000" text-anchor="start" style="white-space: pre;" direction="ltr">Hub</text><text x="0" y="115.80000000000001" font-family="Helvetica, Segoe UI Emoji" font-size="36px" fill="#000000" text-anchor="start" style="white-space: pre;" direction="ltr"></text><text x="0" y="157.4" font-family="Helvetica, Segoe UI Emoji" font-size="36px" fill="#000000" text-anchor="start" style="white-space: pre;" direction="ltr">PC 01</text><text x="0" y="199" font-family="Helvetica, Segoe UI Emoji" font-size="36px" fill="#000000" text-anchor="start" style="white-space: pre;" direction="ltr">Bridge</text></g><g stroke-linecap="round"><g transform="translate(971.1481521679227 272.1725979947747) rotate(0 -43.94233119894284 4.571576216838338)"><path d="M-1.05 0.88 C-15.64 2.3, -73.4 7.84, -87.96 8.85 M0.6 0.29 C-14.04 1.36, -73.56 5.97, -88.48 7.22" stroke="#000000" stroke-width="2" fill="none"></path></g></g><mask></mask><g stroke-linecap="round"><g transform="translate(963.2232296519624 310.2122502563293) rotate(0 -37.263733750173856 -10.139787585337984)"><path d="M-0.86 0.31 C-13.23 -3.03, -62.29 -17.13, -75.02 -20.59 M0.89 -0.58 C-11.47 -3.66, -62.77 -15.96, -75.42 -19.04" stroke="#000000" stroke-width="2" fill="none"></path></g></g><mask></mask><g stroke-linecap="round"><g transform="translate(974.3181937291395 384.70653399882985) rotate(0 -42.47029842391623 3.8089418521830964)"><path d="M-0.07 -1.02 C-14.18 0.3, -70.85 7.01, -84.87 8.63 M-1.57 1.06 C-15.27 1.98, -68.69 5.92, -82.61 6.88" stroke="#000000" stroke-width="2" fill="none"></path></g></g><mask></mask><g stroke-linecap="round"><g transform="translate(971.1481521679227 424.33114657863223) rotate(0 -39.41489343860212 -5.394786933286838)"><path d="M1.16 1.15 C-12.02 -0.76, -66.74 -10.04, -79.99 -11.94 M0.31 0.7 C-12.4 -1.03, -64.51 -8.7, -77.66 -10.84" stroke="#000000" stroke-width="2" fill="none"></path></g></g><mask></mask><g stroke-linecap="round"><g transform="translate(817.404703728178 278.5125601924873) rotate(0 -92.75179447264259 17.126034891667246)"><path d="M0.85 1.1 C-30.33 6.65, -155.31 28.1, -186.36 33.62 M-0.16 0.64 C-31.03 5.78, -153.12 26.38, -184.12 31.67" stroke="#000000" stroke-width="2" fill="none"></path></g></g><mask></mask><g stroke-linecap="round"><g transform="translate(765.1001667529504 405.311320447855) rotate(0 -69.92946011330446 -36.68972603486745)"><path d="M-0.2 -0.95 C-23.38 -12.91, -115.66 -60.71, -138.43 -72.59 M-1.77 1.17 C-25.2 -11.11, -117.12 -61.98, -139.65 -74.55" stroke="#000000" stroke-width="2" fill="none"></path></g></g><mask></mask><g stroke-linecap="round"><g transform="translate(546.3723778672738 70.8795842280868) rotate(0 -70.87814931408792 29.244248915146898)"><path d="M0 -0.36 C-23.6 9.68, -117.23 48.87, -140.9 59.13 M-1.46 -1.6 C-25.26 8.65, -118.73 49.93, -141.76 60.09" stroke="#000000" stroke-width="2" fill="none"></path></g></g><mask></mask><g stroke-linecap="round"><g transform="translate(402.1386913370163 148.5438188382634) rotate(0 91.6823989666874 -16.781355584034422)"><path d="M0.56 -0.92 C31.13 -6.31, 153.37 -27.39, 183.97 -32.87 M-0.61 1.21 C29.77 -4.5, 152.38 -29.11, 183.08 -34.77" stroke="#000000" stroke-width="2" fill="none"></path></g></g><mask></mask><g stroke-linecap="round"><g transform="translate(413.23365541419366 162.80870355193645) rotate(0 74.56718226370037 8.301949713833281)"><path d="M0.44 -1.09 C25.27 1.73, 125.3 14.6, 149.93 17.7 M-0.79 0.95 C23.88 3.32, 124.23 12.73, 149.47 15.71" stroke="#000000" stroke-width="2" fill="none"></path></g></g><mask></mask><g stroke-linecap="round"><g transform="translate(411.64869509594564 381.5365528999736) rotate(0 67.56767021338743 -32.61363878149007)"><path d="M-0.21 -0.09 C22.77 -10.81, 114.05 -52.71, 136.91 -63.15 M-1.77 -1.19 C21.18 -11.78, 113.23 -54.55, 136.28 -65.13" stroke="#000000" stroke-width="2" fill="none"></path></g></g><mask></mask><g stroke-linecap="round"><g transform="translate(565.3921435356906 406.8962807661029) rotate(0 -70.69500054688626 -2.8915146127518767)"><path d="M-0.57 -0.91 C-24.25 -1.89, -118.25 -5.9, -142.08 -7.01 M1.34 1.23 C-22.46 0.49, -118.99 -4.48, -142.73 -5.82" stroke="#000000" stroke-width="2" fill="none"></path></g></g><mask></mask><g stroke-linecap="round"><g transform="translate(314.964543661451 383.1215132182215) rotate(0 -104.68601584898488 -66.17022058656205)"><path d="M0.8 -0.53 C-34.35 -22.65, -175.34 -110.29, -210.17 -132.41 M-0.24 1.81 C-35.09 -20.69, -173.27 -111.86, -207.96 -134.15" stroke="#000000" stroke-width="2" fill="none"></path></g></g><mask></mask><g stroke-linecap="round"><g transform="translate(313.3795833432032 161.22368277132807) rotate(0 -100.52390709257833 38.687378701035655)"><path d="M0.94 0.13 C-32.83 13.07, -168.2 65.44, -201.98 78.22 M-0.03 -0.85 C-33.46 11.68, -165.84 63.3, -199.64 76.39" stroke="#000000" stroke-width="2" fill="none"></path></g></g><mask></mask><g transform="translate(31.252353867482384 474.4005078051723) rotate(0 99 41.49999999999997)"><text x="0" y="32.5" font-family="Helvetica, Segoe UI Emoji" font-size="36px" fill="#5f3dc4" text-anchor="start" style="white-space: pre;" direction="ltr">Prim채r-</text><text x="0" y="74" font-family="Helvetica, Segoe UI Emoji" font-size="36px" fill="#5f3dc4" text-anchor="start" style="white-space: pre;" direction="ltr">verkabelung</text></g><g transform="translate(364.0991600001828 483.9103301770202) rotate(0 99 41.50000000000003)"><text x="0" y="32.5" font-family="Helvetica, Segoe UI Emoji" font-size="36px" fill="#087f5b" text-anchor="start" style="white-space: pre;" direction="ltr">Sekund채r-</text><text x="0" y="74" font-family="Helvetica, Segoe UI Emoji" font-size="36px" fill="#087f5b" text-anchor="start" style="white-space: pre;" direction="ltr">verakbelung</text></g><g transform="translate(696.9459056705232 483.9103906393807) rotate(0 99 41.49999999999997)"><text x="0" y="32.5" font-family="Helvetica, Segoe UI Emoji" font-size="36px" fill="#e67700" text-anchor="start" style="white-space: pre;" direction="ltr">Terti채r-</text><text x="0" y="74" font-family="Helvetica, Segoe UI Emoji" font-size="36px" fill="#e67700" text-anchor="start" style="white-space: pre;" direction="ltr">verkabelung</text></g><g stroke-linecap="round"><g transform="translate(367.4020598727893 430.9962459357369) rotate(0 0.13818575552886614 17.08103214974284)"><path d="M-0.69 -1.04 C-0.54 4.56, 0.11 28, 0.05 34.15 M1.14 1.03 C1.22 6.71, -0.89 29.72, -0.87 35.2" stroke="#087f5b" stroke-width="4" fill="none"></path></g></g><mask></mask><g stroke-linecap="round"><g transform="translate(366.17871437662234 462.3945855580307) rotate(0 121.56281085208019 0.4571140277620884)"><path d="M-0.05 -0.7 C40.22 -0.61, 201.8 -0.56, 242.46 -0.57 M-1.53 1.55 C39.03 1.88, 203.84 0.91, 244.66 0.67" stroke="#087f5b" stroke-width="4" fill="none"></path></g></g><mask></mask><g stroke-linecap="round"><g transform="translate(609.628201524996 468.5114063741442) rotate(0 -0.14645409523348007 -16.132379183688926)"><path d="M0.43 -0.82 C0.61 -6.06, 0.44 -26.54, 0.52 -32.03 M-0.81 1.36 C-0.68 -4.14, -0.39 -27.92, -0.16 -33.62" stroke="#087f5b" stroke-width="4" fill="none"></path></g></g><mask></mask><g stroke-linecap="round"><g transform="translate(25.229905350120703 413.7240328322449) rotate(0 -0.07323778085412869 24.586947807435166)"><path d="M-1.08 0.34 C-0.97 8.3, 0.72 40.18, 0.93 48.41 M0.56 -0.53 C0.56 7.54, 0.65 41.65, 0.47 49.7" stroke="#5f3dc4" stroke-width="4" fill="none"></path></g></g><mask></mask><g stroke-linecap="round"><g transform="translate(25.292867994753692 465.01761523654886) rotate(0 164.6376831898403 0.9971738172083633)"><path d="M0.34 0.93 C55.27 1.14, 275.03 0.18, 330.22 0.17 M-0.94 0.37 C53.74 0.89, 273.68 2.02, 329.02 1.8" stroke="#5f3dc4" stroke-width="4" fill="none"></path></g></g><mask></mask><g stroke-linecap="round"><g transform="translate(358.5524368257761 466.5596785683665) rotate(0 0.13044230638251975 -22.075261509174766)"><path d="M0.93 -0.46 C1.14 -7.52, 0.18 -34.86, 0.17 -41.99 M-0.04 -1.75 C0.12 -9.17, -0.79 -36.96, -0.69 -43.69" stroke="#5f3dc4" stroke-width="4" fill="none"></path></g></g><mask></mask><g stroke-linecap="round"><g transform="translate(615.604990117416 428.3312481766677) rotate(0 -0.05708394617238355 19.43643672027457)"><path d="M0.53 0.91 C0.55 7.3, 0.58 32.45, 0.47 38.53 M-0.64 0.34 C-0.78 6.33, -0.18 30.22, -0.24 36.54" stroke="#e67700" stroke-width="4" fill="none"></path></g></g><mask></mask><g stroke-linecap="round"><g transform="translate(617.928473012344 466.36175878744496) rotate(0 177.70154597623343 0.47890188641846976)"><path d="M0.91 0.47 C60.12 0.35, 296.57 -0.05, 355.47 -0.16 M-0.07 -0.34 C58.99 -0.31, 295.18 1.07, 354.66 1.29" stroke="#e67700" stroke-width="4" fill="none"></path></g></g><mask></mask><g stroke-linecap="round"><g transform="translate(974.1890648190399 468.6635323192542) rotate(0 -0.3632714951691014 -21.699059033000054)"><path d="M0.47 0.25 C0.35 -7.17, -0.05 -36.32, -0.16 -43.65 M-0.75 -0.66 C-1.08 -8.03, -1.14 -35.53, -1.19 -42.57" stroke="#e67700" stroke-width="4" fill="none"></path></g></g><mask></mask></svg>